<?xml version="1.0" encoding="utf-8"?>
<!-- Generator: Adobe Illustrator 23.0.6, SVG Export Plug-In . SVG Version: 6.00 Build 0)  -->
<svg version="1.1" id="Layer_1" xmlns="http://www.w3.org/2000/svg" xmlns:xlink="http://www.w3.org/1999/xlink" x="0px" y="0px"
	 viewBox="0 0 240.8 297.1" style="enable-background:new 0 0 240.8 297.1;" xml:space="preserve">
<style type="text/css">
	.st0{fill:url(#SVGID_2_);}
	.st1{fill:#FFFFFF;}
	.st2{fill:#FEFEFE;}
	.st3{fill:#FAFAFA;}
	.st4{fill:#F9F9F9;}
	.st5{fill:#EEEEEE;}
	.st6{fill:#141414;}
	.st7{fill:#1A1A1A;}
	.st8{fill:#696969;}
	.st9{fill:#4E4E4E;}
	.st10{fill:#3B3B3B;}
	.st11{fill:#727272;}
	.st12{fill:#505050;}
	.st13{fill:#4F4F4F;}
	.st14{fill:#979797;}
	.st15{fill:#010101;}
	.st16{fill:#45B9BB;}
	.st17{fill:#010100;}
	.st18{fill:#020201;}
	.st19{fill:#030303;}
	.st20{fill:#040404;}
	.st21{fill:#030302;}
	.st22{fill:#060605;}
	.st23{fill:#050504;}
	.st24{fill:#44B8BA;}
	.st25{fill:#3DB6B8;}
	.st26{fill:#32B3B5;}
	.st27{fill:#4BBBBD;}
	.st28{fill:#FDFDFD;}
	.st29{fill:#3DB6B9;}
	.st30{fill:#3CB6B8;}
	.st31{fill:#FBFBFC;}
	.st32{fill:#FCFCFC;}
	.st33{fill:#F3F3F4;}
	.st34{fill:#A9A8A8;}
	.st35{fill:#AAA9A9;}
	.st36{fill:#A8A7A7;}
	.st37{fill:#B8B6B6;}
	.st38{fill:#A2A1A1;}
	.st39{fill:#161616;}
	.st40{fill:#070707;}
	.st41{fill:#A1A0A1;}
	.st42{fill:#A3A3A3;}
	.st43{fill:#A09F9F;}
	.st44{fill:#A6A6A6;}
	.st45{fill:#A5A4A4;}
	.st46{fill:#A7A7A7;}
	.st47{fill:#A8A7A8;}
	.st48{fill:#A6A5A6;}
	.st49{fill:#E5EEEE;}
	.st50{fill:#A3A2A2;}
	.st51{fill:#A7A6A7;}
	.st52{fill:#B8B7B7;}
	.st53{fill:#E8F3F3;}
	.st54{fill:#DFEDEE;}
	.st55{fill:#E6F7F7;}
	.st56{fill:#DEEBEB;}
	.st57{fill:#FAF8F8;}
	.st58{fill:#F2F3F3;}
	.st59{fill:#1A1A1D;}
	.st60{fill:#EAEEEE;}
	.st61{fill:#B4B2B3;}
	.st62{fill:#EEF4F4;}
	.st63{fill:#F6FAFA;}
	.st64{fill:#0D0E11;}
	.st65{fill:#DEEAEB;}
	.st66{fill:#B2B1B1;}
	.st67{fill:#343538;}
	.st68{fill:#E1ECEC;}
	.st69{fill:#EEEFEF;}
	.st70{fill:#B4B3B2;}
	.st71{fill:#E8EFEF;}
	.st72{fill:#0E0F12;}
	.st73{fill:#E7EEEF;}
	.st74{fill:#D4EBEB;}
	.st75{fill:#0F1015;}
	.st76{fill:#121316;}
	.st77{fill:#202225;}
	.st78{fill:#DDEAEA;}
	.st79{fill:#FBFBFB;}
	.st80{fill:#39393B;}
	.st81{fill:#18191A;}
	.st82{fill:#37383A;}
	.st83{fill:#35363A;}
	.st84{fill:#AEADAD;}
	.st85{fill:#FCFDFD;}
	.st86{fill:#08080A;}
	.st87{fill:#ECF3F4;}
	.st88{fill:#0D0F13;}
	.st89{fill:#DAE8E8;}
	.st90{fill:#484849;}
	.st91{fill:#373738;}
	.st92{fill:#04070B;}
	.st93{fill:#2A2B2D;}
	.st94{fill:#B4B3B3;}
	.st95{fill:#202123;}
	.st96{fill:#EBF0F0;}
	.st97{fill:#BFBEBE;}
	.st98{fill:#252629;}
	.st99{fill:#9D9D9E;}
	.st100{fill:#EAF2F2;}
	.st101{fill:#B3B2B2;}
	.st102{fill:#303032;}
	.st103{fill:#EFF6F6;}
	.st104{fill:#26272A;}
	.st105{fill:#E9F0EF;}
	.st106{fill:#7A7A7B;}
	.st107{fill:#F9FAFA;}
	.st108{fill:#E2EDEE;}
	.st109{fill:#EDEFEF;}
	.st110{fill:#E0EEEF;}
	.st111{fill:#1A1C1F;}
	.st112{fill:#282A2F;}
	.st113{fill:#E1EEEF;}
	.st114{fill:#E4EEEE;}
	.st115{fill:#E1EFF0;}
	.st116{fill:#E3EFEF;}
	.st117{fill:#E0E8E8;}
	.st118{fill:#848486;}
	.st119{fill:#FEFDFD;}
	.st120{fill:#9A9A9B;}
	.st121{fill:#B5B4B3;}
	.st122{fill:#B1B0B0;}
	.st123{fill:#E5EFEF;}
	.st124{fill:#434344;}
	.st125{fill:#8F8F90;}
	.st126{fill:#909091;}
	.st127{fill:#828183;}
	.st128{fill:#1FB4B6;}
	.st129{fill:#A5A4A5;}
	.st130{fill:#B0B0B0;}
	.st131{fill:#A5A5A5;}
	.st132{fill:#A3A2A3;}
	.st133{fill:#9E9D9D;}
	.st134{fill:#A2A1A2;}
	.st135{fill:#EDEFF0;}
	.st136{fill:#E6F2F2;}
	.st137{fill:#E3F1F1;}
	.st138{fill:#232325;}
	.st139{fill:#DCEDED;}
	.st140{fill:#17181B;}
	.st141{fill:#2B2D30;}
	.st142{fill:#A7A6A6;}
	.st143{fill:#EEEEEF;}
	.st144{fill:#2F3031;}
	.st145{fill:#B5B4B6;}
	.st146{fill:#303133;}
	.st147{fill:#151516;}
	.st148{fill:#DEEDED;}
	.st149{fill:#333538;}
	.st150{fill:#FBF9F9;}
	.st151{fill:#E3EEEE;}
	.st152{fill:#DAEDED;}
	.st153{fill:#DFEAEB;}
	.st154{fill:#DBEAEA;}
	.st155{fill:#FEFCFD;}
	.st156{fill:#111215;}
	.st157{fill:#1A1C20;}
	.st158{fill:#D4E7E8;}
	.st159{fill:#D6E7E7;}
	.st160{fill:#3B3C3E;}
	.st161{fill:#D5E7E7;}
	.st162{fill:#323336;}
	.st163{fill:#FBFCFC;}
	.st164{fill:#ACABAB;}
	.st165{fill:#B0AFAF;}
	.st166{fill:#B2B1B0;}
	.st167{fill:#111113;}
	.st168{fill:#DCE9EA;}
	.st169{fill:#D5EAEB;}
	.st170{fill:#E7EBEB;}
	.st171{fill:#EBF3F3;}
	.st172{fill:#DEEFEF;}
	.st173{fill:#0E0E10;}
	.st174{fill:#FAFBFB;}
	.st175{fill:#252527;}
	.st176{fill:#28292C;}
	.st177{fill:#28282A;}
	.st178{fill:#DCEEEF;}
	.st179{fill:#D6EAEA;}
	.st180{fill:#2D2D2E;}
	.st181{fill:#27292A;}
	.st182{fill:#E9F1F1;}
	.st183{fill:#F3F3F3;}
	.st184{fill:#3E3F42;}
	.st185{fill:#2F3033;}
	.st186{fill:#F8F9F9;}
	.st187{fill:#AFAEAE;}
	.st188{fill:#323333;}
	.st189{fill:#040508;}
	.st190{fill:#FEFDFC;}
	.st191{fill:#DEEDEE;}
	.st192{fill:#DEEEEF;}
	.st193{fill:#B6B6B6;}
	.st194{fill:#E0EEEE;}
	.st195{fill:#DDEEEF;}
	.st196{fill:#25262A;}
	.st197{fill:#DAEAEA;}
	.st198{fill:#EBE7E7;}
	.st199{fill:#EEF6F6;}
	.st200{fill:#999899;}
	.st201{fill:#FDFDFE;}
	.st202{fill:#D3E9EA;}
	.st203{fill:#7D7D7F;}
	.st204{fill:#B9B8B8;}
	.st205{fill:#D7E8E8;}
	.st206{fill:#363739;}
	.st207{fill:#1F1E1E;}
	.st208{fill:#E1EEEE;}
	.st209{fill:#06080D;}
	.st210{fill:#E3EEEF;}
	.st211{fill:#1D1D1E;}
	.st212{fill:#090A0B;}
	.st213{fill:#79797C;}
	.st214{fill:#08080B;}
	.st215{fill:#8F8F91;}
	.st216{fill:#757576;}
	.st217{fill:#2E2F32;}
	.st218{fill:#000001;}
	.st219{fill:#C6D3D4;}
	.st220{fill:#FAFDFD;}
	.st221{fill:#DCE0E1;}
	.st222{fill:#76CBCD;}
	.st223{fill:#C5D6D8;}
	.st224{fill:#C6D3D5;}
	.st225{fill:#D2D8DA;}
	.st226{fill:#35B3B6;}
	.st227{fill:#FCFCFD;}
	.st228{fill:#D4DBDD;}
	.st229{fill:#E9EAEC;}
	.st230{fill:#C8D3D4;}
	.st231{fill:#C5CFD1;}
	.st232{fill:#C6D9DB;}
	.st233{fill:#C3D0D2;}
	.st234{fill:#C0CBCD;}
	.st235{fill:#CDD8D9;}
	.st236{fill:#D9DEDF;}
	.st237{fill:#CDDADC;}
	.st238{fill:#D3DBDC;}
	.st239{fill:#45B9BA;}
	.st240{fill:#E1ECED;}
	.st241{fill:#868588;}
	.st242{fill:#686868;}
	.st243{fill:#B8B7B6;}
	.st244{fill:#BAB9B8;}
	.st245{fill:#B6B5B6;}
	.st246{fill:#969596;}
	.st247{fill:#BFBFBE;}
	.st248{fill:#9E9D9E;}
	.st249{fill:#58595A;}
	.st250{fill:#727276;}
	.st251{fill:#454546;}
	.st252{fill:#838385;}
	.st253{fill:#C4D2D4;}
	.st254{fill:#DBE0E1;}
	.st255{fill:#19B2B4;}
	.st256{fill:#DEECED;}
	.st257{fill:#58C6C8;}
	.st258{fill:#D1D8DA;}
	.st259{fill:#C1D5D7;}
	.st260{fill:#C4D3D4;}
	.st261{fill:#0BAEB0;}
	.st262{fill:#D6E7E8;}
	.st263{fill:#C4CED0;}
	.st264{fill:#D3DADC;}
	.st265{fill:#C6D2D4;}
	.st266{fill:#C2D8DA;}
	.st267{fill:#BFD0D2;}
	.st268{fill:#D1DBDC;}
	.st269{fill:#CBD7D9;}
	.st270{fill:#1EB3B5;}
	.st271{fill:#D9DDDF;}
	.st272{fill:#060606;}
	.st273{fill:#BAB9B9;}
	.st274{fill:#CCCCCC;}
	.st275{fill:#7C7C7E;}
	.st276{fill:#BDBCBB;}
	.st277{fill:#9F9E9E;}
	.st278{fill:#050505;}
	.st279{fill:#BBBBBA;}
	.st280{fill:#B7B7B8;}
	.st281{fill:#BBBAB9;}
	.st282{fill:#C7C6C5;}
	.st283{fill:#919093;}
	.st284{fill:#38BBBD;}
	.st285{fill:#E3F6F6;}
	.st286{fill:#666669;}
	.st287{fill:#5BC7C9;}
	.st288{fill:#4E4F52;}
	.st289{fill:#808081;}
	.st290{fill:#858687;}
	.st291{fill:#616264;}
	.st292{fill:#A4A3A4;}
	.st293{fill:#6F6F71;}
	.st294{fill:#000003;}
	.st295{fill:#C3C2C1;}
	.st296{fill:#4E4E4F;}
</style>
<title>logo-chiko</title>
<g>
	<g>
		
			<linearGradient id="SVGID_2_" gradientUnits="userSpaceOnUse" x1="120.5" y1="6.2913" x2="120.5" y2="281.0913" gradientTransform="matrix(1 0 0 -1 0 297.2912)">
			<stop  offset="1.322751e-03" style="stop-color:#00B4B7"/>
			<stop  offset="0.1194" style="stop-color:#00B4B7"/>
			<stop  offset="0.5514" style="stop-color:#00B4B7"/>
			<stop  offset="1" style="stop-color:#00B4B7"/>
		</linearGradient>
		<path id="SVGID_1_" class="st0" d="M120.5,16.2c-54,0-98.1,43.3-98.1,96.2c0,72.1,98.1,178.6,98.1,178.6s98.1-106.5,98.1-178.6
			C218.6,59.5,174.5,16.2,120.5,16.2z"/>
	</g>
</g>
<circle class="st1" cx="120.5" cy="108.6" r="72.3"/>
<g id="tthJOg.tif">
	<g>
		<g>
			<path class="st2" d="M171.8,106.9c0,11.9,0,23.9,0,35.8c0,0.8-0.2,0.9-0.9,0.9c-33.8,0-67.5,0-101.3,0c0-22.9,0-45.8,0-68.7
				c0-0.8,0.2-0.9,0.9-0.9c12,0,24,0,36,0c0,0.6-0.6,0.5-0.9,0.6c-5.1,0.7-10,1.7-14.8,3.5c-4.6,1.7-9,3.7-13,6.6
				c-3.4,2.5-5.6,5.7-6.5,9.8c-0.7,2.9-1.1,5.9-1.2,8.9C70,111,73.4,116,80.4,119c3.2,1.4,6.5,2,9.9,2.1c3.8,0.1,7.2-1.1,10.4-3.1
				c6.6-4.3,11.8-9.8,15.6-16.7c0.7-1.4,0.9-1.4,2-0.2c1.7,1.8,3.5,1.9,5.3,0.3c1-0.9,1.3-0.9,1.9,0.3c2.2,3.8,4.8,7.3,8,10.4
				c2.9,2.8,6,5.3,9.6,7.2c4.5,2.3,9.1,2.3,13.9,1.2c3.9-0.9,7.4-2.5,10.2-5.3c2-1.9,3.2-4.2,3.9-6.9
				C171.2,107.7,171.1,107,171.8,106.9z"/>
			<path d="M171.8,106.9c-0.2,0.1-0.2,0.3-0.3,0.4c-1.2,6.1-5,9.9-10.5,12c-5.2,2-10.5,2.9-15.9,1c-3.8-1.3-6.9-3.7-9.8-6.3
				c-4.3-3.8-7.9-8.1-10.5-13.3c-1.1,1.1-2.2,2.3-3.9,2.1c-1.6-0.2-2.6-1.3-3.6-2.6c-1.1,2-2.1,3.9-3.4,5.6
				c-3,4.2-6.7,7.8-10.8,10.9c-7.1,5.5-14.7,5.8-22.7,2.5c-4.1-1.7-7.4-4.4-9.2-8.6c-0.8-1.8-1.2-3.7-1.2-5.7
				c-0.1-3.6,0.4-7.2,1.2-10.7c1-4.2,3.4-7.5,6.9-10c6.2-4.4,13.2-6.9,20.5-8.7c2.3-0.6,4.7-0.9,7.1-1.2c0.6-0.2,1.3,0,1.8-0.4
				c0.3,0,0.6,0,0.9,0c0.2,0.2,0.4,0.1,0.5,0.1c0.2,0,0.4,0,0.6,0c0.2,0,0.5,0.1,0.7-0.1c0.3,0,0.6,0,0.9,0c0.6,0.2,1.2,0.2,1.8,0
				c0.8,0,1.5,0,2.3,0c0.9,0.3,1.9,0.3,2.7,1c0.3,0.2,0.6,0,0.8-0.2c0.4-0.3,0.7-0.5,1.2-0.6c0.4-0.1,0.8,0,1.2-0.2
				c0.2,0,0.5,0,0.7,0c0.6,0.2,1.2,0.2,1.7,0.7c0.2,0.2,0.4,0.3,0.6,0.1c0.6-0.5,1.5-0.5,2.2-0.8c0.8,0,1.7,0,2.5,0
				c0.6,0.2,1.2,0.2,1.8,0c0.3,0,0.6,0,0.9,0c0.2,0.2,0.5,0.1,0.7,0.1c0.2,0,0.4,0,0.6,0c0.2,0,0.4,0,0.5-0.1c0.2,0,0.5,0,0.7,0
				c0.7,0.4,1.4,0.2,2.1,0.2c3.7,0.2,7.3,1,10.8,2c5.7,1.7,11.1,3.9,16.1,7.1c5.7,3.7,8.4,9,8.7,15.6c0,0.5,0,1,0.2,1.5
				c0,0.2,0,0.3,0,0.5c-0.2,0.5-0.2,1.1,0,1.6c0,0.2,0,0.3,0,0.5c-0.2,0.6-0.1,1.3-0.1,2c0.1,0.5-0.1,1,0.1,1.4
				C171.8,106.6,171.8,106.8,171.8,106.9z"/>
			<path class="st2" d="M171.8,100.6c-0.6-0.9-0.5-2-0.6-3c-0.7-6.4-3.9-11.1-9.3-14.4c-8-4.8-16.6-7.6-25.9-8.6
				c-0.2-0.3-0.8,0.2-0.9-0.4c11.9,0,23.9,0,35.8,0c0.8,0,0.9,0.2,0.9,0.9C171.8,83.5,171.8,92,171.8,100.6z"/>
			<path class="st3" d="M119.9,74.5c-1.1,0.9-2.2,1.3-3.4,0.2c-0.3-0.3-1.1,0.2-1.3-0.6c1.7,0,3.3,0,5,0
				C120.3,74.3,120,74.4,119.9,74.5z"/>
			<path class="st4" d="M126.3,74.1c-0.3,0.8-1.3,0.4-1.7,0.9c-0.7,0.8-1.1,0-1.6-0.3c-0.4-0.2-0.8-0.4-1.1-0.6
				C123.2,74.1,124.7,74.1,126.3,74.1z"/>
			<path class="st5" d="M135.1,74.1c0.2,0.4,0.7,0.1,0.9,0.4c-0.7-0.1-1.5,0.2-2-0.4C134.3,74.1,134.7,74.1,135.1,74.1z"/>
			<path class="st5" d="M107.4,74.1c-0.5,0.7-1.2,0.3-1.8,0.4c0.2-0.3,0.7-0.1,0.9-0.4C106.8,74.1,107.1,74.1,107.4,74.1z"/>
			<path class="st6" d="M171.6,105.1c0-0.7-0.2-1.4,0.2-2.1c0,0.7,0,1.4,0,2C171.8,105.2,171.7,105.2,171.6,105.1z"/>
			<path class="st7" d="M112.9,74.1c-0.6,0.3-1.2,0.4-1.8,0C111.7,74.1,112.3,74.1,112.9,74.1z"/>
			<path class="st7" d="M130.6,74.1c-0.6,0.4-1.2,0.3-1.8,0C129.4,74.1,130,74.1,130.6,74.1z"/>
			<path class="st8" d="M171.8,102.6c-0.2-0.5-0.5-1.1,0-1.6C171.8,101.6,171.8,102.1,171.8,102.6z"/>
			<path class="st9" d="M171.6,105.1c0.1,0,0.1,0,0.2,0c0,0.5,0,0.9,0,1.4C171.3,106.1,171.7,105.6,171.6,105.1z"/>
			<path class="st10" d="M119.9,74.5c0.1-0.1,0.2-0.3,0.3-0.4c0.3,0,0.6,0,0.9,0C120.7,74.3,120.3,74.5,119.9,74.5z"/>
			<path class="st11" d="M109.5,74.3c-0.2,0-0.4,0-0.7,0c-0.1,0-0.1-0.1-0.1-0.1c0,0,0-0.1,0.1-0.1c0.2,0,0.5,0,0.7,0
				C109.6,74.1,109.6,74.2,109.5,74.3C109.5,74.2,109.5,74.3,109.5,74.3z"/>
			<path class="st12" d="M109.5,74.3c0-0.1,0-0.1,0-0.2c0.2,0,0.5,0,0.7,0C110,74.4,109.7,74.3,109.5,74.3z"/>
			<path class="st13" d="M132.2,74.3c-0.3,0-0.5,0.1-0.7-0.2c0.2,0,0.5,0,0.7,0C132.2,74.1,132.2,74.1,132.2,74.3
				C132.2,74.2,132.2,74.3,132.2,74.3z"/>
			<path class="st11" d="M132.2,74.3c0-0.1,0-0.1,0-0.2c0.2,0,0.5,0,0.7,0c0.1,0,0.1,0.1,0.1,0.1c0,0,0,0.1-0.1,0.1
				C132.6,74.3,132.4,74.3,132.2,74.3z"/>
			<path class="st14" d="M108.8,74.1c0,0.1,0,0.1,0,0.2c-0.2,0-0.4,0.1-0.5-0.2C108.5,74.1,108.6,74.1,108.8,74.1z"/>
			<path class="st14" d="M132.8,74.3c0-0.1,0-0.1,0-0.2c0.2,0,0.3,0,0.5,0C133.3,74.4,133,74.3,132.8,74.3z"/>
			<path class="st15" d="M101.3,124c1.7,0,3.4,0,5.1,0c1.8,0,2.9,1.1,2.9,2.9c0,2.3,0,4.6,0,6.9c0,0.8-0.2,0.9-1,0.9
				c-2.6,0-2.6,0-2.6-2.5c0-0.8-0.3-1-1-0.9c-1.4,0-2.7,0-4.1,0c-0.9,0-0.7-0.6-0.7-1c0-0.5-0.2-1,0.7-0.9c1.4,0.1,2.8,0,4.2,0
				c0.6,0,0.9-0.2,0.9-0.8c0.1-2.4,0.1-2.4-2.3-2.4c-1.8,0-3.6,0.1-5.4,0c-1-0.1-1.3,0.3-1.2,1.3c0.1,2.1,0,4.3,0,6.5
				c0,0.7-0.2,0.9-0.9,0.9c-2.7,0-2.7,0.1-2.7-2.7c0-1.7,0-3.5,0-5.2c0-1.8,1-2.8,2.8-2.8C97.7,124,99.5,124,101.3,124z"/>
			<path class="st16" d="M167.9,130.5c-0.6,2.6-2.1,4.5-4.6,5.5c-0.5,0.2-0.9,0.3-1.4,0.2c-0.4,0.1-0.8,0.1-1.3,0l-0.1,0l-0.1,0
				c-0.3-0.3-0.8,0-1.2-0.2c-2.3-0.7-3.8-2.2-4.5-4.5c0-1,0-2,0-2.9c-0.1-2.6,2.4-5.1,5.4-5.4c0.3,0.2,0.9,0,0.8,0.6
				c-0.3,0.9-0.9,1.6-1.3,2.5c-0.5,1.1-0.7,2.2-0.4,3.4c0.3,1,0,1.2-1,1c-1.5-0.3-1.7,0-1.3,1.4c0.3,0.9,0.9,1.5,1.6,2.1
				c0.2,0.5,0.8,0.1,1.1,0.3c0.1,0.1,0.2,0,0,0c-0.1,0-0.1-0.1-0.1-0.2c0-0.3,0.3-0.6,0.6-0.6c0.4,0,0.4,0.4,0.4,0.7
				c0.1,0.3,0,0.7,0.4,0.8c0.4,0.1,0.5-0.3,0.7-0.6c0.1-0.2,0.2-0.4,0.4-0.4c0.2,0,0.3,0.1,0.4,0.1c0.5,0.2,1,0.2,1.4-0.3
				c0.8-0.7,1.3-1.5,1.5-2.5c0.2-1-0.2-1.3-1.1-1.1c-0.1,0-0.1,0-0.2,0.1c-0.4,0.1-0.8,0.4-1.2,0.1c-0.3-0.3,0-0.7,0.1-1.1
				c0.5-1.6-0.2-2.9-0.9-4.3c-0.3-0.5-0.8-0.9-0.8-1.6c0.2-0.5,0.5-0.4,0.9-0.3c2.5,0,5.5,2.9,5.4,5.4
				C168,129.2,167.7,129.9,167.9,130.5z"/>
			<path class="st17" d="M90.5,124c-1.6,2.7-3.1,5.2-4.6,7.8c-0.1,0.2-0.3,0.5-0.4,0.7c-1.4,2.4-1.4,2.4-4.2,2.3
				c-0.4,0-0.6-0.1-0.8-0.4c-1.9-3.3-3.9-6.6-5.9-9.9c0-0.1,0-0.1,0-0.3c1,0,2,0,3,0c0.6,0,0.7,0.4,0.9,0.7c1.1,1.8,2.1,3.7,3.2,5.5
				c0.7,1.3,0.8,1.3,1.6,0c1-1.8,2.1-3.6,3.1-5.4c0.3-0.6,0.7-0.8,1.4-0.8C88.6,124.1,89.5,124,90.5,124z"/>
			<path class="st18" d="M120.1,134.7c-2.4,0-4.8,0-7.1,0c-0.7,0-1-0.1-1-0.9c0.1-3,0-6,0-8.9c0-0.7,0.2-0.9,0.9-0.9
				c2.7,0,2.7,0,2.7,2.6c0,1.6,0.1,3.2,0,4.7c-0.1,1,0.4,1.3,1.3,1.3c3.4,0,6.7,0,10.1,0c0.7,0,1.2,0,1.2,1c0,1.1-0.5,1.1-1.3,1.1
				C124.7,134.7,122.4,134.7,120.1,134.7z"/>
			<path class="st18" d="M139.2,134.7c-2.4,0-4.8,0-7.1,0c-0.7,0-0.9-0.1-0.9-0.9c0-3,0-6,0-9.1c0-0.7,0.2-0.8,0.8-0.8
				c2.7,0,2.7,0,2.7,2.7c0,1.6,0,3.2,0,4.9c0,0.8,0.3,1.1,1.1,1.1c3.5,0,7,0,10.4,0c0.9,0,1,0.3,1.1,1.1c0,0.9-0.2,1.1-1.1,1.1
				C143.9,134.7,141.6,134.7,139.2,134.7z"/>
			<path class="st19" d="M126.4,142.9c-0.7,0-1.4,0-2.1,0c-0.3,0-0.6,0-0.9-0.1c-0.8-0.3-1.1-0.9-0.9-1.6c0.3-1.1-0.8-2.9,1.3-3.1
				c1.6-0.2,3.2,0,4.7-0.1c0.5,0,0.5,0.3,0.5,0.7c0,0.4-0.1,0.6-0.6,0.6c-1.2,0-2.4,0-3.6,0c-0.2,0-0.6-0.1-0.6,0.3
				c0,0.4,0.4,0.3,0.6,0.3c1.5,0,3.1,0,4.6,0c0.3,0,0.7-0.2,0.8,0.4c0,0.4,0.1,0.7-0.5,0.8c-0.6,0.1-0.3,0.7-0.3,1
				c0,0.6-0.2,0.8-0.8,0.8C127.9,142.9,127.2,142.9,126.4,142.9z"/>
			<path class="st20" d="M79.2,142.9c-0.8,0-1.7,0-2.5,0c-0.4,0-0.7-0.1-0.7-0.6c0-0.5,0.2-0.6,0.7-0.6c1.3,0,2.6,0,4,0
				c0.2,0,0.6,0.1,0.6-0.3c0-0.4-0.4-0.3-0.6-0.3c-1,0-2,0-3.1,0c-0.9,0-1.5-0.4-1.6-1.4c-0.1-1,0.4-1.6,1.4-1.6
				c1.7-0.1,3.4,0,5.1,0c0.5,0,0.6,0.2,0.6,0.7c0,0.5-0.3,0.6-0.7,0.6c-1.3,0-2.6,0-4,0c-0.2,0-0.6-0.1-0.6,0.3
				c0,0.5,0.4,0.4,0.7,0.4c1,0,2,0,3.1,0c1.1,0,1.6,0.5,1.6,1.5c0,1-0.5,1.5-1.6,1.5C80.8,142.9,80,142.9,79.2,142.9z"/>
			<path class="st20" d="M88,138c0.8,0,1.7,0,2.5,0c0.5,0,0.7,0.1,0.7,0.6c0,0.5-0.2,0.6-0.7,0.6c-1.1,0-2.3,0-3.4,0
				c-0.4,0-1.1-0.3-1.1,0.3c0,0.7,0.7,0.3,1.1,0.3c1,0.1,2,0,3.1,0c0.4,0,0.7,0,0.7,0.5c0,0.5-0.2,0.6-0.7,0.6c-1.2,0-2.3,0-3.5,0
				c-0.3,0-0.7-0.1-0.7,0.3c0,0.4,0.4,0.2,0.6,0.2c1.2,0,2.5,0,3.7,0c0.4,0,0.9-0.1,0.9,0.6c0,0.8-0.5,0.6-0.9,0.6c-1.5,0-3,0-4.5,0
				c-1.3,0-1.6-0.4-1.7-1.6c-0.1-3.3-0.1-3.3,3.2-3.3C87.4,138,87.7,138,88,138z"/>
			<path class="st20" d="M138.3,142.9c-0.8,0-1.7,0-2.5,0c-0.5,0-0.7-0.1-0.7-0.6c0-0.5,0.3-0.6,0.7-0.6c1.2,0,2.4,0,3.6,0
				c0.3,0,0.9,0.3,0.9-0.3c0-0.4-0.5-0.3-0.8-0.3c-0.9,0-1.9,0-2.8,0c-0.9,0-1.5-0.4-1.5-1.4c0-1,0.4-1.6,1.4-1.6c1.7,0,3.4,0,5.1,0
				c0.4,0,0.6,0.1,0.6,0.6c0,0.4-0.1,0.7-0.6,0.7c-1.4,0-2.7,0-4.1,0c-0.2,0-0.6-0.1-0.6,0.3c0,0.4,0.3,0.3,0.6,0.3
				c1.1,0,2.1,0,3.2,0c1,0,1.5,0.4,1.5,1.4c0,1-0.5,1.5-1.5,1.6C140,142.9,139.1,142.9,138.3,142.9z"/>
			<path class="st20" d="M113.6,142.9c-0.8,0-1.7,0-2.5,0c-0.5,0-0.7-0.1-0.7-0.6c0-0.5,0.2-0.6,0.7-0.6c1.3,0,2.6,0,3.8,0
				c0.3,0,0.7,0.2,0.7-0.3c0-0.4-0.5-0.3-0.7-0.3c-0.9,0-1.9,0-2.8,0c-1.2,0-1.7-0.5-1.7-1.5c0-1,0.5-1.5,1.7-1.5c1.5,0,3.1,0,4.6,0
				c0.5,0,0.9-0.1,0.9,0.7c0,0.7-0.4,0.6-0.8,0.6c-1.2,0-2.4,0-3.6,0c-0.3,0-0.8-0.2-0.8,0.3c0,0.6,0.6,0.3,0.9,0.4c1,0,2,0,2.9,0
				c0.9,0,1.4,0.5,1.4,1.4c0,0.9-0.4,1.5-1.4,1.6C115.4,142.9,114.5,142.9,113.6,142.9z"/>
			<path class="st19" d="M154.6,142.9c-0.1,0-0.2,0-0.3,0c-3.7,0.1-3.1-0.3-3.1-3.7c0-0.9,0.7-1.1,1.4-1.2c1.4,0,2.8,0,4.2,0
				c1,0,1.5,0.6,1.5,1.6c0.1,3.2,0,3.3-3.2,3.3C154.9,142.9,154.8,142.9,154.6,142.9z"/>
			<path class="st19" d="M97.7,141.2c0.4,0.6,0.8,1.1,1.2,1.6c-2.5,0.7-2.8-1.5-4.2-2.8c0.9,0,1.4,0,2,0c0.3,0,0.5,0,0.5-0.4
				c0-0.3-0.2-0.3-0.5-0.3c-0.8,0-1.7,0-2.5,0c-0.5,0-0.4,0.3-0.4,0.6c0,0.8,0,1.6,0,2.4c0.1,0.9-0.5,0.6-1,0.7
				c-0.5,0-0.9,0.1-0.9-0.7c0-1.2,0-2.3,0-3.5c0-0.6,0.3-0.7,0.8-0.7c1.4,0,2.9,0,4.3,0c0.9,0,1.7,0.1,2,1.1
				C99.3,140.2,98.8,140.9,97.7,141.2z"/>
			<path class="st21" d="M162.2,138c0.8,0,1.7,0,2.5,0c1.1,0.1,1.6,0.6,1.5,1.7c0,1.1-0.7,1.4-1.6,1.5c-0.9,0-1.8,0-2.7,0
				c-0.7,0-1.1,0.1-1,0.9c0.2,0.8-0.3,0.8-0.9,0.8c-0.6,0-1,0-0.9-0.8c0.1-1.1,0.1-2.2,0-3.3c0-0.7,0.2-0.8,0.8-0.8
				C160.7,138.1,161.4,138,162.2,138C162.2,138,162.2,138,162.2,138z"/>
			<path class="st21" d="M143.2,140.4c0-0.4,0-0.8,0-1.2c0-0.6-0.1-1.1,0.9-1.1c1,0,1.1,0.4,1,1.2c-0.1,0.7,0.1,1,0.8,0.9
				c0.3,0,0.6,0,0.9,0c1.1,0.1,2,0.1,1.7-1.4c-0.2-0.8,0.5-0.5,0.9-0.5c0.4,0,1-0.2,0.9,0.6c0,1.2,0,2.5,0,3.7c0,0.8-0.6,0.5-1,0.5
				c-0.4,0-1,0.2-0.9-0.6c0.2-1.1-0.4-1.3-1.3-1.2c-0.3,0-0.7,0-1,0c-0.8-0.1-1.3,0.1-1.1,1.1c0.1,0.8-0.4,0.7-0.9,0.7
				c-0.5,0-1,0-0.9-0.7C143.2,141.6,143.2,141,143.2,140.4z"/>
			<path class="st19" d="M99.7,138.1c2.6-0.8,2.5,1.7,3.7,2.8c0.3-0.5,0.7-1,0.9-1.6c0.5-1.2,1.3-1.6,2.7-1.2
				c-0.9,1.5-1.7,3-2.6,4.4c-0.3,0.5-1.7,0.5-2,0C101.5,141.1,100.6,139.6,99.7,138.1z"/>
			<path class="st22" d="M107.7,140.4c0-0.4,0.1-0.9,0-1.3c-0.2-1,0.3-1.1,1.1-1.1c0.5,0,0.7,0.2,0.7,0.7c0,1.2-0.1,2.3,0,3.5
				c0,0.8-0.4,0.7-0.9,0.7c-0.5,0-1,0.1-0.9-0.7C107.7,141.6,107.7,141,107.7,140.4z"/>
			<path class="st23" d="M150.7,130.1c-0.2,0-0.3,0-0.5,0c-1.1,0-1.6-0.7-1.2-1.8c0.1-0.2,0.1-0.3,0.3-0.3c0.9,0,1.9-0.1,2.8,0
				c0.7,0.2,0.2,1,0.3,1.5c0.1,0.3,0,0.6-0.5,0.6C151.6,130.1,151.2,130.1,150.7,130.1z"/>
			<path class="st24" d="M154.8,128.5c0.3,1,0.4,2,0,2.9C154.5,130.4,154.3,129.4,154.8,128.5z"/>
			<path class="st25" d="M160.9,123.7c0-0.5-0.5-0.4-0.7-0.7c0.7,0,1.4-0.3,2.1,0.2c-0.4,0-0.7,0-0.7,0.5
				C161.4,123.9,161.1,123.9,160.9,123.7z"/>
			<path class="st26" d="M167.9,130.5c-0.4-0.6-0.1-1.2-0.2-1.9C168.3,129.2,168,129.9,167.9,130.5z"/>
			<path class="st27" d="M160.6,136.2c0.4,0,0.8,0,1.3,0C161.5,136.4,161.1,136.4,160.6,136.2z"/>
			<path class="st27" d="M159.3,135.9c0.4,0,0.8-0.2,1.2,0.2C160.1,136.2,159.7,136.2,159.3,135.9z"/>
			<path class="st28" d="M109.5,77c1.1,0,2.2,0,3.3,0.2c2,0.3,2.5,0.8,3,2.7c3.3,10.6,0.5,19.8-6.6,27.9c-2.1,2.4-4.4,4.5-6.9,6.4
				c-5.8,4.6-12.1,5.3-19,2.8c-4.2-1.5-7.6-3.9-9.3-8.1c-0.8-1.9-1.1-4-1-6.1c0.1-2.6,0.5-5.2,1-7.7c0.8-3.7,2.8-6.7,5.9-8.9
				c4.8-3.5,10.3-5.6,16-7.2C100.4,77.6,104.9,77.1,109.5,77z"/>
			<path class="st28" d="M132.1,77c9.7,0.1,18.7,2.6,27.1,7.4c5.5,3.1,8.5,7.7,9,14c0.2,2.2,0.5,4.4,0.3,6.7
				c-0.4,3.9-2.1,7.2-5.4,9.3c-6.7,4.3-13.7,5.8-21,1.6c-6.1-3.5-10.8-8.6-14.3-14.8c-3.6-6.4-4.2-13.2-2.3-20.2
				c0.9-3.3,1.3-3.8,4.7-3.9C130.9,77,131.5,77,132.1,77z"/>
			<path class="st2" d="M121.2,100.8c-0.4,0-0.8-0.2-1.1-0.4c-1.5-1.2-1.9-2.4-1.3-4.2c1.9-5.5,1.8-11.1,0.3-16.6
				c-0.3-1.1-0.2-2,0.7-2.7c0.6-0.5,1.3-1,2.1-0.5c0.9,0.5,1.2,1.1,0.9,2.2c-1.2,4.2-1.8,8.5-1.1,12.9c0.3,2.1,0.9,4.1,1.6,6.1
				C123.8,98.8,122.5,100.8,121.2,100.8z"/>
			<path class="st2" d="M160.9,123.7c0.2,0,0.4,0,0.7,0.1c0.5,0.7,1,1.5,1.4,2.3c0.6,1.4,1,2.9,0,4.4c0.7,0.1,1.2-0.3,1.8-0.5
				c0.8-0.3,1.2,0,1.2,0.8c0,1.4-0.6,2.6-1.8,3.4c-0.5,0.5-1,0.3-1.6,0.2c-0.1-0.1-0.2-0.1-0.2-0.2c-0.6-0.1-0.2,0.3-0.2,0.5
				c-0.3,0.4-0.4,1.1-1,0.9c-0.6-0.2-0.6-0.8-0.5-1.3c0-0.1,0-0.3-0.1-0.6c-0.3,0.3-0.5,0.5-0.7,0.6c-0.3,0.2-0.7,0.2-1,0
				c-1.4-0.6-1.9-1.8-2.1-3.2c-0.2-0.9,0.2-1.2,1-1c0.1,0,0.2,0.1,0.3,0.1c1.3,0.3,1.3,0.3,1-1c-0.3-1.5,0.3-2.7,1-4
				C160.2,124.7,160.6,124.2,160.9,123.7z"/>
			<path class="st29" d="M158.7,134.3c0.3,0,0.7,0,1,0c0.2,0.1,0.5,0.1,0.5,0.5c-0.5-0.3-1-0.1-1.5-0.3
				C158.7,134.5,158.6,134.4,158.7,134.3C158.7,134.4,158.7,134.3,158.7,134.3z"/>
			<path class="st30" d="M162.5,134.4c0.5-0.1,1.1,0,1.6-0.2C163.7,134.9,163.1,134.6,162.5,134.4z"/>
			<path class="st16" d="M162,134.6c-0.1-0.3-0.3-0.6,0.1-0.8c0.1-0.1,0.2,0.2,0.2,0.3C162.1,134.2,162.1,134.4,162,134.6z"/>
			<path class="st31" d="M125.8,141.7c-0.4-0.2-1.4,0.3-1.4-0.3c0-0.6,1-0.2,1.5-0.3c0.4-0.1,0.9,0,1.3,0c0.2,0,0.4,0,0.4,0.3
				c0,0.3-0.2,0.3-0.4,0.3C126.8,141.7,126.3,141.7,125.8,141.7z"/>
			<path class="st32" d="M154.6,139.3c0.2,0,0.4,0,0.5,0c0.4,0.1,1-0.2,1.1,0.2c0.2,0.6,0.1,1.3,0.1,2c0,0.3-0.4,0.2-0.6,0.2
				c-0.5,0-1-0.1-1.5,0c-1,0.2-1.3-0.2-1.4-1.3C152.8,138.7,154,139.4,154.6,139.3z"/>
			<path class="st33" d="M162.8,139.3c0.4,0.3,1.5-0.5,1.5,0.4c0,0.7-1,0.2-1.5,0.3c-0.4,0.1-0.8,0-1.2,0c-0.3,0-0.5,0-0.6-0.4
				c0-0.4,0.3-0.4,0.5-0.4C161.9,139.3,162.3,139.3,162.8,139.3z"/>
			<path class="st34" d="M113.8,78.1c1.1,0.5,1.2,1.6,1.5,2.5c1.6,5.4,1.9,10.8-0.2,16.2c-1.4,3.7-3.4,7.1-6.1,10.1
				c-3.2,3.7-6.8,7-11.2,9.2c-0.4,0.2-0.8,0.3-1.3,0.5c-0.5,0-1,0-1.4,0.5c-2.5,0.9-5.1,0.7-7.7,0.2c-3-0.5-5.9-1.5-8.5-3.3
				c-3.6-2.6-5.4-6.2-5.4-10.6c0-3.9,0.5-7.7,2-11.3c0.7-1.7,1.7-3.2,3.2-4.3c0.4-0.1,0.8-0.2,0.9-0.7c2.7-2.3,5.8-3.8,9-5.2
				c4.9-2,9.9-3.5,15.1-4c2.8-0.3,5.6-0.4,8.5-0.3c0.2,0,0.4,0.1,0.6,0.2c0.1,0.5-0.4,0.5-0.6,0.6c-0.3,0.1-0.7,0.1-1.1,0.2
				c-0.3,0.1-0.5,0.2-0.7,0.4c-0.2,0.1-0.3,0.3-0.5,0.5c-0.2,0.2-0.3,0.5-0.5,0.7c-0.2,0.2-0.3,0.5-0.6,0.6c-0.3,0.3-0.2,0.5,0,0.8
				c0.3,0.2,0.3,0.4,0.4,0.7c0.1,0.3,0.3,0.5,0.6,0.7c0.2,0.1,0.3,0.2,0.5,0.3c0,0,0.1,0.1,0.1,0.1c0,0,0.1,0.1,0.1,0.1
				c0.1,0.1,0.2,0.1,0.2,0.2c0.3,0.1,0.6,0.3,0.9,0.1c-0.3-0.4-0.9,0-1.3-0.4c-0.1-0.1-0.1-0.2-0.1-0.3c0.6-1,0.9-1.1,1.9-0.7
				c0.3,0.1,0.5,0.3,0.8,0.3c0.1,0,0.2,0,0.3,0.1c0.1,0.1,0.1,0.1,0.1,0.2c-0.1,0.1-0.2,0,0,0.1c0.1,0,0.1-0.1,0.2-0.2
				c0.2-0.2,0.4-0.5,0.5-0.7c0-0.1,0.1-0.2,0.1-0.2c0.1-0.1,0.1-0.1,0.2-0.1c0.2-0.4,0.1-0.8-0.1-1.2c-0.1-0.1-0.1-0.2-0.2-0.2
				c-0.2-0.3-0.4-0.5-0.7-0.7c-0.1-0.1-0.1-0.1-0.2-0.2c-0.1-0.1-0.1-0.2-0.2-0.2c-0.1-0.3-0.5-0.5-0.5-0.9
				C113.1,78,113.4,77.9,113.8,78.1z"/>
			<path class="st34" d="M79.7,87.2c0,0.7-0.3,0.9-0.9,0.7C79.1,87.5,79.4,87.4,79.7,87.2z"/>
			<path class="st35" d="M112.2,78.3c0.2-0.1,0.5-0.3,0.7-0.4c0.3,0,0.6-0.1,0.9,0.2c-0.4,0-0.7,0.1-0.9,0.4
				c-0.1,0.1-0.1,0.1-0.2,0.1C112.4,78.6,112.3,78.5,112.2,78.3z"/>
			<path class="st36" d="M95.2,117.1c0.3-0.6,0.7-0.8,1.4-0.5C96.1,116.8,95.7,117,95.2,117.1z"/>
			<path class="st34" d="M165.7,110.8c-1.2,2.1-3,3.4-5.1,4.5c-2.9,1.5-5.9,2.3-9.2,2.4c-1.1,0.3-2.1,0-3.1-0.2
				c-0.1-0.1-0.1-0.2-0.1-0.3c0.3-0.3,0.6-0.2,1-0.3c0.4,0,0.7-0.1,0.9-0.4c0.1-0.2,0.2-0.3,0.4-0.3c0.1,0,0.2,0,0.3-0.1
				c0-0.1,0-0.2,0.1-0.2c0.1-0.3,0.3-0.6,0.5-0.8c0.1-0.1,0.1-0.1,0.2-0.2c0.3-0.4,0.3-0.9-0.1-1.3c-0.2-0.2-0.4-0.4-0.6-0.6
				c-0.1-0.1-0.2-0.3-0.3-0.4c-0.1-0.1-0.2-0.2-0.3-0.3c-0.2-0.2-0.5-0.3-0.6-0.6c0-0.1,0-0.2,0-0.3c-0.3-0.4-0.7-0.1-1.1-0.2
				c0.3,0.2,0.9-0.3,1,0.4c-0.5,0.5-1.3,0.1-1.8,0.5c-0.3,0.2-0.5,0.5-0.8,0.7c-0.3,0.1-0.5,0.2-0.6,0.5c-0.1,0.1-0.2,0.2-0.3,0.3
				c-0.4,0.5-0.4,0.9-0.1,1.4c0.1,0.1,0.2,0.3,0.3,0.5c0.1,0.2,0.2,0.4,0.2,0.6c0.1,0.3,0.3,0.5,0.5,0.7c0.2,0.5,0,0.6-0.4,0.5
				c-0.3,0-0.5,0-0.7-0.2c-0.2-0.3-0.5-0.3-0.8-0.3c-2.8-1-5.1-2.7-7.2-4.5c-5.2-4.4-9.2-9.5-11.5-15.9c-1.8-5.2-1.6-10.4,0.1-15.6
				c0.2,0.1,0.3,0.3,0.4,0.5c0.2,0.2-0.1,0.6,0.3,0.7c0.3,0.2,0.3,0.5,0.5,0.7c0.1,0.1,0.2,0.2,0.2,0.3c0,0.1,0.1,0.1,0.1,0.2
				c0.1,0.1,0.1,0.2,0.2,0.3c0.1,0.1,0.2,0.2,0.2,0.3c0.1,0.1,0.2,0.2,0.3,0.2c0.2,0.1,0.3,0.1,0.5,0.2c0.4,0.1,0.7,0.1,1.1-0.1
				c0.1,0,0.3-0.1,0.4-0.1c0.3,0,0.6-0.2,0.8-0.5c0.1-0.1,0.2-0.2,0.3-0.3c0.3-0.2,0.4-0.5,0.6-0.8c0.1-0.1,0.1-0.2,0.2-0.2
				c0.2-0.3,0.2-0.6,0.1-0.9c-0.1-0.1-0.2-0.2-0.3-0.3c-0.1-0.1-0.1-0.2-0.1-0.2c0-0.3-0.2-0.5-0.4-0.7c-0.3-0.2-0.5-0.5-0.8-0.7
				c-0.8-0.6-1.6-0.6-2.4,0c-0.2,0.1-0.4,0.2-0.6,0.1c-0.2-0.3-0.4-0.6-0.1-0.9c0.5-0.4-0.3-0.1-0.1-0.3c0.5-0.3,1.1-0.4,1.6-0.4
				c11.3-0.4,21.8,2.3,31.3,8.5c3.9,2.6,6.1,6.3,6.5,10.9c-0.5,0-0.3-0.7-0.7-0.8c-0.1-0.1-0.2-0.3-0.3-0.5
				c-0.1-0.3-0.3-0.5-0.5-0.7c-0.2-0.3-0.4-0.5-0.6-0.7c-0.3-0.2-0.6-0.3-0.8-0.5c-0.1-0.1-0.1-0.1-0.2-0.2c-0.3-0.2-0.6-0.1-0.8,0
				c-0.1,0.1-0.2,0.1-0.2,0.2c-0.3,0.2-0.6,0.3-0.8,0.5c-0.3,0.2-0.5,0.5-0.6,0.8c0,0.1-0.1,0.2-0.1,0.3c-0.3,0.5-0.6,1-0.2,1.6
				c0,0.1,0.1,0.2,0.1,0.3c0,0.4,0.1,0.7,0.5,0.8c0.3,0.2,0.5,0.4,0.8,0.7c0.2,0.2,0.3,0.3,0.5,0.5c0.1,0.1,0.1,0.1,0.2,0.2
				c0.3,0.1,0.6,0.2,0.9,0.1c0-0.1,0-0.2,0.1-0.2c0.1-0.2,0.1-0.3,0.2-0.4c0.1-0.1,0.2-0.1,0.3-0.2c0.1-0.1,0.2-0.1,0.3-0.2
				c0.1-0.1,0.1-0.1,0.2-0.2c0.2-0.1,0.4-0.2,0.5-0.4c0.4-0.4,0.2-1.2,1-1.3c0.4,0.7,0.5,1.5,0.6,2.3c0.5,2.6,0.4,5.2,0.1,7.7
				c-0.2,1.1-0.5,2.1-1.1,3C166.1,110,165.7,110.2,165.7,110.8z"/>
			<path class="st34" d="M167.5,106.7c-0.3-0.2-0.3-0.5-0.2-0.8c0.5-2.4,0.1-4.7,0-7.1c0,0,0.1-0.1,0.1-0.1c0,0,0.1,0.1,0.1,0.1
				C168,101.4,168.2,104.1,167.5,106.7z"/>
			<path class="st34" d="M127.8,78.1c0.2,0,0.4,0,1,0c-0.7,0.3-1,0.6-0.7,1.1c0,0.1,0.1,0.1,0.1,0.2c0,0.1,0,0.1,0,0.1
				c-0.2,0.2-0.4,0.4-0.5,0.6c-0.2,0.3-0.2,0.7-0.6,0.8c-0.2,0-0.3-0.1-0.3-0.3c-0.1-0.3,0.1-0.6,0-1C126.7,79,127,78.3,127.8,78.1z
				"/>
			<path class="st37" d="M148.2,117.2c1,0.4,2.1,0.4,3.2,0.4c-1.7,0.4-3.2,0-4.8-0.4c0.4,0,0.4-0.2,0.2-0.5
				c-0.2-0.2-0.6-0.3-0.4-0.7c0.2-0.2,0.4-0.1,0.6,0c0.1,0.1,0.2,0.2,0.3,0.3c0.2,0.2,0.3,0.3,0.6,0.5
				C148,116.9,148.2,117,148.2,117.2z"/>
			<path class="st34" d="M167.3,98.8c-0.4-0.6-0.2-1.4-0.7-2c-0.1-0.1-0.1-0.3,0-0.5c0.6,0,0.3,0.7,0.7,0.9c0,0.1,0,0.1,0,0.2
				C167.4,97.8,167.5,98.3,167.3,98.8L167.3,98.8z"/>
			<path class="st34" d="M165.7,110.8c-0.2-0.7,0.1-1,0.7-1.1C166.3,110.2,165.9,110.4,165.7,110.8z"/>
			<path class="st36" d="M145.1,116.7c0.4-0.4,0.8,0,1.1,0.1c0.1,0-0.2,0.1-0.3,0.2C145.6,116.9,145.3,116.8,145.1,116.7z"/>
			<path class="st38" d="M126.7,79.7c0.5,0.3,0,0.6,0,0.9c0.1,0.2,0.1,0.3,0,0.4c-0.2-0.1-0.2-0.3-0.3-0.5
				C126.5,80.3,126.4,80,126.7,79.7z"/>
			<path class="st34" d="M167.3,98.8c0-0.5,0-0.9,0-1.4c0.3,0.4,0.2,0.9,0.2,1.4C167.4,98.8,167.4,98.8,167.3,98.8z"/>
			<path class="st16" d="M109,87c0.1,0.2,0.3,0.4,0.4,0.6c0.2,0.3,0.3,0.6,0.5,0.9c0.2,0.3,0.4,0.5,0.6,0.8l0,0
				c0.1,0.4,0.2,0.8,0.4,1.2c0.2,0.4,0.1,0.9,0.3,1.3c0.1,0.1,0.1,0.3,0.2,0.4c0,0.4,0,0.8,0.1,1.2c0,0.8,0,1.5,0,2.3
				c-0.1,0.3-0.1,0.7-0.2,1c-0.8,0-0.1,0.4-0.1,0.5c0,0.1,0,0.1,0,0.2c-0.1,0.6-0.4,1.2-0.6,1.8c-0.1,0.3-0.2,0.6-0.4,0.8
				c-0.2,0.3-0.2,0.7-0.5,0.9c-0.2,0.3-0.4,0.5-0.6,0.8l0,0c-0.8,0.7-1.4,1.7-2.3,2.3c-0.1,0-0.1,0-0.2,0c-0.2,0.3-0.5,0.5-0.8,0.7
				c-0.1,0.1-0.1,0.1-0.2,0.2c-0.3,0.1-0.7,0.2-0.9,0.5c-0.1,0-0.3,0-0.4,0c-0.2,0.2-0.5,0.2-0.7,0.3c-0.3,0.1-0.5,0.2-0.8,0.3
				c-0.6,0.1-1.1,0.4-1.7,0.4c-1.1,0.2-2.3,0.2-3.4,0c-0.5,0-1-0.3-1.5-0.4c-0.3-0.1-0.6-0.2-0.9-0.3c-0.6-0.2-1.2-0.5-1.8-0.9
				c-0.3-0.2-0.5-0.3-0.8-0.5c-0.5-0.2-0.8-0.7-1.2-1c-0.5-0.2-0.7-0.7-1-1.2c-0.3-0.2-0.6-0.5-0.8-0.9c-0.2-0.2-0.3-0.5-0.4-0.7
				c-0.1-0.1-0.2-0.1-0.3-0.2c-0.4-0.7-0.7-1.5-0.8-2.3l0,0c-0.7-1.4-0.7-3-0.7-4.5c0.1-0.7,0.2-1.3,0.4-1.9c0,0,0-0.1,0-0.1
				c-0.1-0.5,0.2-0.9,0.3-1.4c0.3-0.6,0.5-1.3,0.9-1.8c0.2-0.4,0.5-0.7,0.8-1.1c0.2-0.4,0.6-0.7,0.9-1c0.1-0.1,0.2-0.2,0.2-0.3
				c0.4-0.3,0.8-0.6,1.1-1l0,0c0.3-0.2,0.5-0.4,0.8-0.5c0.1,0,0.2,0,0.3-0.1c0.2,0,0.3-0.1,0.4-0.2c0-0.1,0.1-0.2,0.2-0.2
				c0.2-0.1,0.4-0.2,0.6-0.3l0,0c0.7-0.5,1.6-0.5,2.3-0.9c0.1-0.1,0.3-0.1,0.4-0.2c0.2,0.1,0.4,0.1,0.5,0.2c0.2,0.1,0.4,0.1,0.6,0.1
				c0.8,0.1,1.6,0.1,2.4,0c0.1,0,0.2,0,0.3,0c0.3,0,0.6,0,0.8,0.1c0.5,0.2,1.1,0.2,1.6,0.5c0.3,0.2,0.6,0.3,1,0.5
				c0.3,0.1,0.6,0.3,0.9,0.5c0.3,0.2,0.6,0.3,0.9,0.5c0.2,0.2,0.4,0.3,0.7,0.5C107.9,85.7,108.5,86.3,109,87z"/>
			<path class="st39" d="M113.6,82.9c-0.5,0.1-0.9,0.2-1.4-0.3c-0.7-0.6-1.2,0-1.6,0.5c-0.4,0.1-0.6-0.2-0.8-0.5
				c0.4-0.9,0.8-1.8,0.1-2.8c0-0.1,0.1-0.2,0.2-0.3c0.6-0.6,1-0.1,1.5,0.3c0.2,0.1,0.4,0.2,0.6,0.1c0.3-0.2,0.5-0.5,0.9-0.6
				c0.1,0,0.2,0,0.3,0c0.1,0,0.2,0.1,0.3,0.1l0,0.1c0.1,0.1,0.1,0.2,0.2,0.3c0,0.1,0.1,0.3,0,0.4c-0.7,0.8-0.7,1.6-0.1,2.4
				C113.7,82.7,113.6,82.8,113.6,82.9z"/>
			<path class="st40" d="M90.7,115.1c-0.1-0.1-0.2-0.3-0.3-0.4c0-0.2,0-0.3,0.2-0.4c1.3-0.2,1.4-1.1,1.3-2.1c0-0.1,0.1-0.2,0.2-0.3
				c0.3-0.1,0.5,0,0.8,0.2c0.1,0.1,0.2,0.2,0.3,0.4c0.2,0.5,0.6,0.9,1.2,0.7c0.4-0.1,0.7,0,1,0.4c0,0.1,0,0.2,0,0.3
				c-0.1,0.1-0.1,0.3-0.2,0.4c-0.9,0.4-1.2,1-1,2c0,0.1-0.1,0.3-0.2,0.4c-0.2,0.1-0.4,0.1-0.7,0C92.7,115.5,91.6,115.5,90.7,115.1z"
				/>
			<path class="st41" d="M93.8,116.4c0-0.3,0.1-0.5,0-0.8c-0.3-0.8,0-1.2,0.7-1.4c0.4-0.1,0.5-0.4,0.7-0.6c0.2-0.1,0.3-0.1,0.5,0
				c0.3,0.4,0.3,0.9,0.2,1.4c0,0.1-0.1,0.2-0.2,0.3c-0.7,0.2-0.7,1.2-1.6,1.1C93.9,116.6,93.8,116.5,93.8,116.4z"/>
			<path class="st42" d="M92,111.9c0,0.2-0.1,0.4,0,0.6c0.1,1.5,0.1,1.5-1.5,1.9c-0.2-0.2,0-0.5-0.2-0.7c0.2-0.5,0.3-0.9,0.5-1.4
				c0.3-0.2,0.8-0.2,1.1-0.5C91.8,111.8,91.9,111.8,92,111.9z"/>
			<path class="st43" d="M90.7,115.1c0.1,0,0.2,0.1,0.3,0.1c1.2-0.4,1.9,0.2,2.2,1.3c-0.2,0.3-0.5,0.2-0.7,0.3c-0.1,0-0.2,0-0.3,0
				c-0.1,0-0.2-0.1-0.2-0.1C91.3,116.4,90.3,116.3,90.7,115.1z"/>
			<path class="st44" d="M110.2,79.7c-0.1,0.2-0.4,0.3-0.1,0.5c0.9,0.7,0.9,1.3,0,2c-0.1,0.1-0.1,0.3-0.1,0.4
				c-0.1,0.1-0.2,0.1-0.3,0.1c-0.2-0.1-0.3-0.2-0.4-0.4c-0.4-0.7-0.6-1.5,0.1-2.2c0-0.3,0.2-0.6,0.5-0.7
				C110.1,79.5,110.2,79.6,110.2,79.7z"/>
			<path class="st45" d="M113.6,82.9c-0.1-0.2-0.1-0.4-0.2-0.5c-0.9-0.7-0.8-1.4,0-2.1c0.1-0.1,0.1-0.3,0.1-0.5
				c0.8,0,0.6,0.7,0.9,1.1c0.1,0.4,0.1,0.8,0,1.2c0,0.1,0,0.1,0,0.2C114.1,82.4,114.1,83,113.6,82.9
				C113.5,82.9,113.6,82.9,113.6,82.9z"/>
			<path class="st46" d="M110.2,79.7c-0.1-0.1-0.2-0.2-0.3-0.2c0-0.3,0.2-0.5,0.5-0.5c0.3-0.3,0.7-0.4,1.2-0.3c0.2,0.1,0.5,0,0.7,0
				c0.3,0.2,1,0.1,0.7,0.8c-0.3,0.2-0.6,0.4-0.9,0.7c-0.2,0-0.5,0-0.7,0C111,80.1,110.9,79.2,110.2,79.7z"/>
			<path class="st47" d="M95.2,113.6c-0.3-0.3-0.6-0.3-1-0.2c-0.9,0.3-1.3-0.1-1.3-1c0-0.6,0.5-0.5,0.8-0.6c0.3,0,0.5,0.1,0.8,0.2
				c0.1,0.2,0.3,0.4,0.5,0.5C95.2,112.9,95.5,113.2,95.2,113.6z"/>
			<path class="st48" d="M76.9,99c-0.1,0-0.2,0-0.3,0c-0.1-0.1-0.1-0.2-0.1-0.3c0-0.1,0.1-0.2,0.1-0.3c0.7-0.5,1.2-1.3,2.2-0.7
				c0.4,0.2,0.7,0.4,0.8,0.9c-0.1,0.4-0.4,0.5-0.7,0.5c-0.6-0.1-1.1-0.1-1.7,0C77.1,99.1,77,99.1,76.9,99z"/>
			<path class="st49" d="M87.9,93.5c-0.1,1.5,0.2,3.1,0.5,4.5C88.3,98,88.1,98,88,97.9c-0.4-1.7-0.8-3.4-0.3-5.1
				C87.9,93,87.7,93.3,87.9,93.5z"/>
			<path class="st50" d="M76.3,98.5c-0.1-0.1-0.2-0.2-0.3-0.3c-0.1-0.2-0.3-0.3-0.4-0.6c0.1-0.5,0-1,0.2-1.5
				c0.1-0.1,0.3-0.2,0.5-0.2c0.1,0,0.2,0.1,0.3,0.2c0.1,0.2,0.2,0.5,0.2,0.5c0,0.3,0.1,0.2,0.1,0.2c-0.2-0.2-0.2-0.4,0.1-0.6
				c0.9,0.9,0,1.5-0.4,2.2C76.5,98.5,76.4,98.6,76.3,98.5z"/>
			<path class="st51" d="M80.2,98.1c0,0.1-0.1,0.1-0.1,0.2c-0.1,0.1-0.2,0.1-0.2,0c-0.2-0.4-0.3-0.8-0.5-1.1
				c-0.2-0.4-0.3-0.8-0.2-1.3c0.1-0.2,0.2-0.3,0.3-0.4c0.1,0,0.2,0,0.4,0c0.3,0.1,0.5,0.4,0.6,0.7c0.1,0.4,0.1,0.7,0.1,1.1
				C80.4,97.5,80.5,97.9,80.2,98.1z"/>
			<path class="st52" d="M79.1,94.2c0.1,0,0.2,0,0.3,0c0.1,0.1,0.1,0.3,0.1,0.4c0,0.1-0.1,0.2-0.1,0.3c-0.3,0.1-0.6,0.1-0.9,0.1
				c-0.5-0.2-1-0.3-1.2,0.4c-0.3,0.1-0.5,0-0.8-0.1c-0.2-0.1-0.3-0.3-0.3-0.6c0.1-0.4,0.5-0.4,0.8-0.6c0.1-0.1,0.3-0.1,0.5-0.1
				c0.3,0,0.6,0,0.9,0C78.6,94.2,78.9,94.1,79.1,94.2z"/>
			<path class="st53" d="M107,104c0.8-0.8,1.2-1.8,2.3-2.3C108.8,102.8,108.1,103.6,107,104z"/>
			<path class="st54" d="M109,87c-0.8-0.4-1.4-1-1.8-1.8C108.1,85.5,108.7,86.1,109,87z"/>
			<path class="st55" d="M97.7,106.3c1.3,0,2.6,0,3.9,0c0.1,0,0.1,0.1,0.1,0.1c0,0-0.1,0.1-0.1,0.1c-0.1,0-0.3,0-0.4,0
				c-0.8,0.2-1.5-0.1-2.3,0.2c-0.4,0.1-0.8-0.1-1.1-0.2C97.6,106.4,97.6,106.4,97.7,106.3C97.6,106.3,97.7,106.3,97.7,106.3z"/>
			<path class="st56" d="M88.4,98.1c0.3,0.7,0.9,1.4,0.8,2.3C88.6,99.7,88.1,99,88.4,98.1z"/>
			<path class="st2" d="M97.9,82.7c-0.2-0.1-0.4,0-0.5-0.3c1.2,0,2.4-0.2,3.6,0c0.1,0.2,0,0.3-0.1,0.3C99.9,83,98.9,82.9,97.9,82.7z
				"/>
			<path class="st39" d="M109.5,80.2c-0.4,0.7-0.2,1.5,0,2.3c-0.1,0.1-0.2,0.1-0.2,0c-0.1-0.3-0.2-0.5-0.4-0.8
				c-0.2-0.3-0.2-0.5,0-0.8C109.1,80.8,108.8,80,109.5,80.2z"/>
			<path class="st4" d="M97.1,82.7c-0.6,0.8-1.5,0.6-2.3,0.9C95.4,82.9,96.2,82.8,97.1,82.7z"/>
			<path class="st2" d="M111.5,95.8c0-0.9,0-1.8,0-2.6c-0.1-0.3,0-0.3,0.2-0.3c0.1,1.1,0.1,2.2,0,3.4
				C111.3,96.3,111.4,96,111.5,95.8z"/>
			<path class="st57" d="M110.6,99.2c0.1-0.7,0.2-1.3,0.7-1.8c0.3,0.7-0.2,1.3-0.5,1.8C110.7,99.3,110.7,99.3,110.6,99.2z"/>
			<path class="st58" d="M89.5,88.3c-0.3,0.6-0.6,1.2-0.9,1.8c-0.1,0.1-0.2,0.1-0.2,0c0.2-0.7,0.4-1.3,0.9-1.8
				C89.4,88.3,89.5,88.3,89.5,88.3z"/>
			<path class="st59" d="M78.9,99c0.3,0,0.5-0.1,0.7-0.4c0-0.4,0.2-0.4,0.4-0.2c0.1,0,0.1,0,0.2,0c-0.2,0.8-0.8,1-1.5,1.1
				c-0.1-0.1-0.1-0.1-0.1-0.2c0-0.1,0-0.2,0.1-0.2C78.7,98.9,78.8,98.9,78.9,99z"/>
			<path class="st60" d="M101.5,106.5c0-0.1,0-0.1,0-0.2c0.5-0.3,1-0.4,1.6-0.5c0.1,0,0.2,0.1,0.2,0.2
				C102.8,106.3,102.2,106.5,101.5,106.5z"/>
			<path class="st61" d="M76.4,94.7c0.1,0.1,0.2,0.3,0.2,0.4c0,0.3,0,0.7-0.3,0.9c-0.1,0-0.3,0-0.4,0c-0.2,0-0.3-0.1-0.3-0.3
				c0-0.1,0-0.2,0.1-0.3c0.2-0.3,0.3-0.6,0.5-0.9C76.3,94.6,76.3,94.6,76.4,94.7z"/>
			<path class="st62" d="M93.6,104.6c0.6,0.3,1.2,0.6,1.8,0.9c0,0.1-0.2,0.1-0.2,0.2c-0.6-0.3-1.2-0.6-1.8-0.9
				C93.4,104.7,93.4,104.5,93.6,104.6z"/>
			<path class="st63" d="M103.8,83.4c-0.6,0-1.1-0.2-1.6-0.5c0-0.1,0.1-0.2,0.2-0.2c0.5,0,1,0.1,1.4,0.4
				C103.9,83.2,103.9,83.2,103.8,83.4C103.9,83.3,103.8,83.4,103.8,83.4z"/>
			<path class="st64" d="M77.5,94.2c-0.1,0-0.3,0-0.4,0.1C77,94.2,77,94.1,77,94.1c0-0.1,0-0.1,0.1-0.1c0.7-0.3,1.4-0.6,2,0.2
				c-0.2,0-0.3,0.4-0.5,0C78.3,94,77.9,94.1,77.5,94.2z"/>
			<path class="st65" d="M89.5,88.3c-0.1,0-0.1,0-0.2,0c0-0.5,0.3-0.8,0.7-1.1c0.2-0.1,0.3,0,0.3,0.2C90.1,87.7,89.8,88,89.5,88.3z"
				/>
			<path class="st66" d="M95.7,115.3l0-0.1c0.2-0.6,0.2-1.1-0.1-1.7c-0.1-0.2-0.1-0.3,0.1-0.5C96.3,113.8,96.3,114.7,95.7,115.3z"/>
			<path class="st67" d="M114.5,82.1c-0.4-0.4-0.2-0.8-0.2-1.2c0.1-0.1,0-0.3,0.2-0.4c0,0,0.1,0,0.1,0c0.3,0.5,0.2,1,0.1,1.6
				C114.6,82,114.5,82.1,114.5,82.1z"/>
			<path class="st68" d="M88.4,90.2c0.1,0,0.2,0,0.2,0c-0.1,0.5-0.2,1-0.5,1.4C87.7,91,88.1,90.6,88.4,90.2z"/>
			<path class="st69" d="M87.9,93.5c-0.3-0.2-0.2-0.5-0.2-0.7c0.1-0.4-0.2-1,0.5-1.1C88.1,92.3,88,92.9,87.9,93.5z"/>
			<path class="st70" d="M110.6,83.4c0.6,0,1.1-0.1,1.7,0c0.5,0.1,0.2,0.3-0.1,0.4c-0.1,0.1-0.2,0.1-0.3,0.1c-0.4-0.1-0.9,0-1.3-0.3
				l0,0c0,0,0-0.1-0.1-0.1C110.6,83.4,110.6,83.4,110.6,83.4z"/>
			<path class="st71" d="M91.6,103.3c0.6,0,0.9,0.5,1.3,0.9c-0.1,0.1-0.1,0.2-0.2,0.2C92.3,104.1,91.8,103.9,91.6,103.3z"/>
			<path class="st72" d="M92,111.9c-0.1,0-0.2,0-0.2,0c-0.2,0.1-0.2,0-0.2-0.2c0.1-0.1,0.3-0.2,0.4-0.3c0.5-0.3,1.1-0.3,1.6,0
				c0.1,0,0.1,0.1,0.2,0.1c0,0.2-0.1,0.3-0.3,0.4C93,112,92.5,111.8,92,111.9L92,111.9z"/>
			<path class="st73" d="M97.7,106.3c0,0.1,0,0.1,0,0.2c-0.6,0-1.1-0.1-1.6-0.4c0.1-0.1,0.1-0.2,0.2-0.2
				C96.8,105.8,97.3,106,97.7,106.3z"/>
			<path class="st74" d="M92.5,84.9c-0.1,0.6-0.5,1-1.1,1C91.5,85.4,91.9,85,92.5,84.9z"/>
			<path class="st75" d="M112,83.8c0.1,0,0.2,0,0.2,0c-0.6,0.7-1.1,0.4-1.6-0.1C111,83.7,111.5,83.6,112,83.8z"/>
			<path class="st76" d="M114.5,80.4c-0.1,0.1-0.1,0.3-0.2,0.4c-0.2-0.4-0.1-0.9-0.7-1.1c0-0.1,0-0.1,0-0.2
				C114.1,79.6,114.4,79.9,114.5,80.4z"/>
			<path class="st77" d="M113.1,79.5c0-0.6-0.6-0.5-0.9-0.7c0-0.4,0.2-0.3,0.5-0.2c0.1,0,0.1,0,0.2,0c0.2,0.2,0.7,0.3,0.7,0.7
				c0,0.1-0.1,0.1-0.1,0.2C113.3,79.5,113.2,79.5,113.1,79.5z"/>
			<path class="st78" d="M98.8,106.7c0.7-0.4,1.5-0.1,2.3-0.2C100.4,106.9,99.6,106.6,98.8,106.7z"/>
			<path class="st79" d="M111.3,91.7c-0.4-0.4-0.4-0.8-0.5-1.3c-0.1-0.2,0-0.3,0.2-0.3C111.4,90.6,111.3,91.2,111.3,91.7z"/>
			<path class="st80" d="M95.6,113c0,0.2,0,0.3,0,0.5l0,0.1c-0.2,0-0.3,0-0.5,0.1c0,0,0-0.1,0-0.1c-0.1-0.3-0.1-0.6-0.2-1
				C95.4,112.5,95.4,112.9,95.6,113z"/>
			<path class="st81" d="M79.3,94.7c0-0.1,0-0.3,0-0.4c0.6,0.1,1,0.5,1.1,1.2c-0.2,0.1-0.4,0-0.5-0.1C79.7,95.1,79.5,94.9,79.3,94.7
				z"/>
			<path class="st82" d="M91.6,111.7c0.1,0.1,0.1,0.1,0.2,0.2c-0.1,0.7-0.7,0.4-1.1,0.4C90.9,112,91.2,111.8,91.6,111.7z"/>
			<path class="st83" d="M112.7,78.6c-0.2,0.1-0.3,0.1-0.5,0.2c-0.2,0-0.3,0.3-0.5,0c-0.2-0.3-0.6,0-0.8-0.3
				c0.4-0.3,0.8-0.2,1.2-0.2C112.4,78.4,112.5,78.5,112.7,78.6z"/>
			<path class="st84" d="M80,95.1c0.2,0.1,0.3,0.2,0.5,0.3c0.1,0.1,0.1,0.3,0.2,0.4c0,0,0,0.1,0,0.1c0,0.1-0.1,0.1-0.2,0.2
				c-0.1,0-0.2,0-0.2-0.1c-0.2-0.2-0.3-0.3-0.5-0.5C79.6,95.3,79.6,95.1,80,95.1z"/>
			<path class="st85" d="M102.4,82.7c-0.1,0.1-0.2,0.1-0.2,0.2c-0.3,0-0.6,0-0.8,0c-0.1,0-0.2-0.1-0.3-0.2c0-0.1,0-0.1,0-0.2
				C101.6,82.5,102,82.4,102.4,82.7z"/>
			<path class="st86" d="M75.7,95.5c0,0.1,0,0.2,0,0.3c0,0.1,0,0.1,0,0.2c0,0.4,0,0.8-0.1,1.2c-0.1,0.1-0.2,0.3-0.4,0.2
				C75.3,96.7,74.8,95.9,75.7,95.5z"/>
			<path class="st87" d="M90.4,87.4c-0.1-0.1-0.2-0.1-0.3-0.2c0.2-0.5,0.5-0.9,1.1-1C90.9,86.7,90.6,87,90.4,87.4z"/>
			<path class="st88" d="M78.7,99.2c0,0.1,0,0.1,0,0.2c-0.6,0-1.3,0.4-1.8-0.4c0.1,0,0.1,0,0.2,0c0.1-0.1,0.2-0.1,0.3,0
				C77.8,99.1,78.3,98.9,78.7,99.2z"/>
			<path class="st89" d="M111.1,90.2c-0.1,0.1-0.2,0.2-0.2,0.3c-0.3-0.4-0.5-0.7-0.2-1.2C110.9,89.5,111,89.8,111.1,90.2z"/>
			<path class="st90" d="M93.8,116.7c0,0.3-0.2,0.4-0.4,0.4c-0.3-0.3-0.9,0.2-1.1-0.4c0,0,0-0.1,0-0.1
				C92.8,116.6,93.3,116.4,93.8,116.7z"/>
			<path class="st91" d="M75.3,97.4c0.1-0.1,0.2-0.2,0.2-0.2c0.1-0.1,0.2-0.1,0.3,0c0.1,0.1,0.1,0.3,0,0.4c0.1,0.2,0.1,0.4,0.2,0.6
				C75.1,98.4,75.5,97.6,75.3,97.4z"/>
			<path class="st30" d="M111.3,97.2c-0.6-0.1-0.5-0.5-0.4-1c0.2,0.2,0.3,0.3,0.4,0.5c0.2,0,0.3,0,0.2,0.2
				C111.5,97,111.4,97.1,111.3,97.2z"/>
			<path class="st92" d="M77.1,94c0,0.1,0,0.2,0,0.3c-0.2,0.1-0.5,0.3-0.7,0.4c-0.1,0-0.1-0.1-0.2-0.1C76.2,94,76.7,94,77.1,94z"/>
			<path class="st93" d="M113.5,82.9c0.5,0,0.4-0.8,0.9-0.6c-0.1,0.4-0.2,0.8-0.7,0.9l-0.1,0.1l-0.1-0.1
				C113.6,83.1,113.6,83,113.5,82.9z"/>
			<path class="st94" d="M114.7,82c0-0.5-0.1-1-0.1-1.6c0.6,0.4,0.2,1,0.3,1.6C114.9,82,114.8,82,114.7,82
				C114.8,82,114.7,82,114.7,82z"/>
			<path class="st95" d="M80.2,98.1c0-0.3,0-0.6,0-0.9c0.1-0.1,0.2-0.1,0.3-0.1c0.1,0,0.2,0.1,0.3,0.2c0,0.1,0,0.2,0,0.3
				C80.8,97.9,80.6,98.1,80.2,98.1z"/>
			<path class="st96" d="M110.6,89.3c-0.5,0.1-0.5-0.4-0.7-0.7c-0.1-0.2-0.1-0.4,0-0.5C110.3,88.4,110.5,88.8,110.6,89.3z"/>
			<path class="st97" d="M93.8,116.7c-0.5,0-1,0-1.6-0.1c0.3-0.3,0.6-0.1,0.9-0.2c0.2,0,0.4,0,0.6,0c0.1,0,0.2,0,0.3,0.1
				C94,116.5,93.9,116.6,93.8,116.7z"/>
			<path class="st98" d="M111,78.5c0.3,0.1,0.6,0,0.8,0.3c-0.4,0.1-0.8,0.1-1.3,0.2C110.4,78.6,110.7,78.6,111,78.5z"/>
			<path class="st99" d="M109.7,82.7c0.1,0,0.2,0,0.3,0c0.2,0.2,0.4,0.4,0.6,0.5c0,0.1,0,0.1,0,0.2c0,0,0,0,0,0
				c-0.1,0.1-0.2,0.2-0.3,0.2c-0.1-0.1-0.3-0.1-0.4-0.2C109.8,83.1,109.6,83,109.7,82.7z"/>
			<path class="st100" d="M90,101.3c0.3,0.3,0.5,0.5,0.7,0.9c-0.6,0-0.8-0.5-1-0.9C89.8,101.2,89.9,101.2,90,101.3z"/>
			<path class="st2" d="M106.5,84.7c-0.3,0-0.7-0.1-0.9-0.4c-0.1-0.1-0.1-0.2,0-0.3C106,84.1,106.4,84.2,106.5,84.7z"/>
			<path class="st101" d="M92,111.3c0.5-0.5,1-0.2,1.6-0.2c0,0,0,0.1,0,0.1c0,0,0,0.1-0.1,0.1C93.1,111.4,92.6,111.4,92,111.3z"/>
			<path class="st34" d="M110.4,100.4c0.2,0.5,0.2,0.9-0.5,0.9c-0.1-0.1-0.1-0.2-0.1-0.3C109.9,100.7,110.1,100.4,110.4,100.4z"/>
			<path class="st102" d="M93.6,111.7c0.1-0.1,0.2-0.1,0.2-0.2c0.3,0.1,0.7,0.1,0.7,0.6c-0.2,0-0.4,0-0.7,0
				c-0.1-0.1-0.2-0.1-0.3-0.2C93.5,111.9,93.5,111.8,93.6,111.7z"/>
			<path class="st103" d="M110.4,100.4c-0.2,0.2-0.3,0.4-0.5,0.7c-0.2,0-0.3,0-0.2-0.2c0.2-0.3,0.3-0.6,0.5-0.9c0.2,0,0.3,0,0.2,0.2
				C110.4,100.2,110.4,100.3,110.4,100.4z"/>
			<path class="st104" d="M80.7,97.5c0-0.1,0-0.2-0.1-0.4c-0.3-0.4-0.3-0.9,0-1.3l0-0.1c0.1,0,0.1,0,0.2,0c0.3,0.4,0.3,0.9,0.1,1.4
				C80.9,97.3,80.8,97.4,80.7,97.5z"/>
			<path class="st105" d="M110.4,100.2c-0.1-0.1-0.1-0.2-0.2-0.2c0.1-0.3,0.1-0.5,0.4-0.7c0.1,0,0.1,0,0.2,0
				C110.8,99.6,110.7,99.9,110.4,100.2z"/>
			<path class="st106" d="M92,111.3c0.5,0,1,0,1.6,0c0,0.1,0,0.1,0,0.2c-0.5,0-1.1,0-1.6,0C92,111.4,92,111.3,92,111.3z"/>
			<path class="st107" d="M103.8,83.4c0-0.1,0-0.2,0-0.2c0.3,0.1,0.6,0.3,0.9,0.4c0.1,0.1,0.1,0.1,0.1,0.2c0,0-0.1,0.1-0.1,0.1
				C104.3,83.9,104.1,83.6,103.8,83.4z"/>
			<path class="st108" d="M111.5,96.9c-0.1-0.1-0.1-0.1-0.2-0.2c0-0.3-0.1-0.7,0.2-0.9c0.1,0.2,0.1,0.3,0.2,0.5
				C111.7,96.5,111.8,96.8,111.5,96.9z"/>
			<path class="st109" d="M111.7,92.9c-0.1,0.1-0.2,0.2-0.2,0.3c-0.2-0.3-0.3-0.7,0-1C111.8,92.3,111.7,92.6,111.7,92.9z"/>
			<path class="st110" d="M93.4,84.5c-0.2,0.3-0.5,0.5-0.9,0.4c0.1-0.3,0.4-0.5,0.7-0.7C93.4,84.2,93.4,84.3,93.4,84.5z"/>
			<path class="st111" d="M92.3,116.7c0.3,0.3,0.8-0.1,1.1,0.4c-0.5,0-1.1,0.4-1.4-0.4C92.1,116.7,92.2,116.7,92.3,116.7z"/>
			<path class="st112" d="M109.7,82.7c0.1,0.2,0.1,0.5,0.2,0.7c-0.5-0.1-0.7-0.5-0.7-0.9c0.1,0,0.2,0,0.2,0
				C109.5,82.5,109.6,82.6,109.7,82.7z"/>
			<path class="st113" d="M104.9,105.3c0.1-0.5,0.5-0.6,0.9-0.5C105.7,105.2,105.3,105.3,104.9,105.3z"/>
			<path class="st2" d="M103.8,105.5c0.2-0.3,0.5-0.2,0.7-0.2c0,0.4-0.4,0.5-0.7,0.5C103.8,105.8,103.7,105.7,103.8,105.5
				C103.8,105.6,103.8,105.5,103.8,105.5z"/>
			<path class="st2" d="M96.3,105.8c-0.1,0.1-0.2,0.1-0.2,0.2c-0.3-0.1-0.6-0.2-0.9-0.3c0.1-0.1,0.2-0.1,0.2-0.2
				C95.7,105.6,96,105.7,96.3,105.8z"/>
			<path class="st85" d="M103.8,105.5c0,0.1,0,0.2,0,0.3c-0.1,0.2-0.3,0.2-0.5,0.2c-0.1-0.1-0.2-0.2-0.2-0.2
				C103.3,105.6,103.6,105.6,103.8,105.5z"/>
			<path class="st2" d="M110,88.1c0,0.2,0,0.3,0,0.5c-0.3-0.3-0.4-0.6-0.5-1C109.7,87.7,109.9,87.8,110,88.1z"/>
			<path class="st114" d="M92.7,104.4c0.1-0.1,0.2-0.1,0.2-0.2c0.2,0.1,0.5,0.3,0.7,0.4c-0.1,0.1-0.2,0.1-0.2,0.2
				C93.2,104.7,92.9,104.6,92.7,104.4z"/>
			<path class="st115" d="M106,104.7c0.1-0.4,0.4-0.6,0.8-0.7C106.8,104.5,106.5,104.7,106,104.7z"/>
			<path class="st116" d="M109.7,100.8c0.1,0.1,0.1,0.2,0.2,0.2c0,0.1,0,0.1,0,0.2c-0.2,0.2-0.4,0.3-0.7,0.5
				C109.2,101.3,109.4,101,109.7,100.8z"/>
			<path class="st117" d="M93.4,84.5c-0.1-0.1-0.1-0.1-0.2-0.2c0.2-0.3,0.4-0.3,0.7-0.4c0.1,0.1,0.2,0.1,0.2,0.2
				c0,0.1,0,0.1-0.1,0.2c-0.1,0.2-0.2,0.2-0.4,0.2l-0.1,0L93.4,84.5z"/>
			<path class="st118" d="M112,83.8c-0.5,0.1-0.9,0-1.4-0.1c0,0,0-0.1,0.1-0.1C111.1,83.6,111.6,83.5,112,83.8z"/>
			<path class="st119" d="M104.7,83.8c0-0.1,0-0.1,0-0.2c0.4,0,0.7,0.2,0.9,0.4c0,0.1,0,0.2,0,0.3C105.3,84.1,105,83.9,104.7,83.8z"
				/>
			<path class="st2" d="M94.1,84.1c-0.1-0.1-0.2-0.1-0.2-0.2c0.3-0.2,0.6-0.3,0.9-0.3C94.7,83.9,94.4,84,94.1,84.1z"/>
			<path class="st120" d="M81,97.2c0-0.5,0-0.9-0.1-1.4c0.1,0.1,0.2,0.1,0.3,0.2c0.2,0.4,0.2,0.8,0,1.1C81.1,97.2,81,97.2,81,97.2z"
				/>
			<path class="st121" d="M108.8,80.9c0,0.3,0,0.5,0,0.8c-0.4,0.2-0.3-0.2-0.2-0.3C108.6,81.2,108.3,80.8,108.8,80.9z"/>
			<path class="st122" d="M81.1,97.2c0-0.4,0-0.8,0-1.1C81.5,96.4,81.5,96.8,81.1,97.2z"/>
			<path class="st123" d="M90,101.3c-0.1,0-0.2,0-0.3,0c-0.3-0.2-0.3-0.4-0.2-0.7C89.8,100.7,89.9,101,90,101.3z"/>
			<path class="st124" d="M90.2,113.8c0.3,0.1,0.2,0.4,0.2,0.7c0,0.1-0.1,0.1-0.1,0.2C90.1,114.4,90.2,114.1,90.2,113.8z"/>
			<path class="st125" d="M110.4,83.6c0.1-0.1,0.2-0.2,0.3-0.2c0,0.1,0,0.1,0,0.2C110.5,83.6,110.4,83.6,110.4,83.6z"/>
			<path class="st126" d="M113.4,79.5c0-0.1,0.1-0.1,0.1-0.2c0,0.1,0,0.1,0,0.2C113.6,79.5,113.5,79.5,113.4,79.5
				C113.5,79.5,113.4,79.5,113.4,79.5z"/>
			<path class="st19" d="M113.6,83.1c0.1,0,0.1,0,0.2,0c0,0.1-0.1,0.1-0.1,0.2C113.7,83.3,113.6,83.2,113.6,83.1z"/>
			<path d="M76.6,98.8c0,0.1,0,0.1,0,0.2c-0.2,0-0.2-0.2-0.3-0.4C76.4,98.6,76.5,98.7,76.6,98.8z"/>
			<path class="st127" d="M76.6,98.8c-0.1-0.1-0.2-0.1-0.3-0.2c0,0,0,0,0,0c0,0,0.1,0,0.1,0c0.1-0.1,0.2-0.1,0.2,0
				C76.6,98.6,76.6,98.7,76.6,98.8z"/>
			<path class="st128" d="M135.8,104.8c-0.1-0.1-0.2-0.2-0.3-0.4c-0.3-0.1-0.7-0.2-0.9-0.5l0,0c-0.9-0.6-1.6-1.5-2.3-2.3
				c0-0.1,0-0.1,0-0.2c-0.2-0.2-0.4-0.4-0.5-0.7c-0.2-0.2-0.3-0.5-0.5-0.7c-0.1-0.2-0.2-0.5-0.3-0.7c-0.2-0.5-0.4-1.1-0.6-1.6
				c-0.1-0.4-0.4-0.8-0.3-1.3c0-0.2,0-0.5,0.1-0.7c0.1-0.9,0.1-1.8,0-2.7c-0.1-0.4-0.1-0.7,0-1c0.1-0.5,0.3-1.1,0.5-1.6
				c0.1-0.4,0.3-0.8,0.5-1.2c0.1-0.3,0.3-0.6,0.4-1c0.2-0.1,0.3-0.4,0.5-0.6c0.2-0.3,0.3-0.6,0.6-0.8l0,0c0.6-0.7,1.2-1.3,1.8-1.8
				l0,0c0.2-0.3,0.6-0.4,0.8-0.7c0.2-0.1,0.5-0.3,0.7-0.4c0.3-0.1,0.6-0.3,0.9-0.5c0.3-0.1,0.7-0.3,1-0.4c0.5-0.2,1-0.3,1.5-0.4
				c0.1-0.1,0.3-0.1,0.5-0.1c0.2,0,0.4,0,0.6,0c0.1,0,0.2,0,0.3,0.1c0.8,0.1,1.6,0.1,2.5-0.1c0.1,0,0.2,0,0.3,0c0.4,0,0.7,0,1,0.2
				c0.2,0,0.4,0,0.6,0c0.4,0.3,0.8,0.4,1.2,0.5c0.3,0.1,0.6,0.3,0.9,0.5c0.3,0.2,0.6,0.3,0.9,0.5c0.3,0.2,0.6,0.3,0.9,0.6l0,0
				c0.4,0.3,0.6,0.6,0.9,0.9c0.1,0.1,0.3,0.3,0.4,0.4c0.2,0.2,0.5,0.3,0.6,0.7c0,0.3,0.1,0.5,0.5,0.6c0.3,0.2,0.5,0.5,0.7,0.8
				c0.1,0.3,0.3,0.6,0.5,0.9c0.2,0.3,0.2,0.7,0.4,1c0.1,0.3,0.2,0.6,0.3,0.9c0.2,0.6,0.2,1.3,0.4,1.9c0.3,1.2,0.2,2.4-0.2,3.6
				c-0.1,0.5-0.2,0.9-0.3,1.4c-0.2,0.6-0.4,1.1-0.6,1.7c-0.2,0.3-0.3,0.7-0.5,0.9c-0.1,0.3-0.3,0.5-0.5,0.7
				c-0.1,0.4-0.4,0.6-0.8,0.9c-0.2,0.6-0.8,0.8-1.2,1.3c-0.4,0.2-0.7,0.7-1.1,0.8l0,0c-0.2,0.3-0.4,0.5-0.7,0.6
				c-0.9,0.5-1.8,0.9-2.7,1.2c-0.6,0.1-1.1,0.4-1.8,0.2c-1-0.1-2.1-0.1-3.1,0c-0.3,0.1-0.6,0.1-0.9,0c-0.6-0.2-1.1-0.2-1.6-0.5
				c-0.3-0.1-0.6-0.2-0.9-0.3c-0.1,0-0.2,0-0.2,0C136.4,105,136.1,105,135.8,104.8z"/>
			<path class="st48" d="M147.1,116.4c0-0.1-0.1-0.1-0.1-0.2c-0.3-0.3-0.5-0.6-0.6-0.9c0-0.1-0.1-0.2,0-0.3c0.1-0.3,0.1-0.6,0.3-0.9
				c1.2-0.2,1.4,0.1,1.8,1.7c0.4-0.1,0.4-0.5,0.8-0.6c0.7-0.2,1.2,0,1.7,0.5c0,0.1,0.1,0.2,0.1,0.3c0,0.1-0.1,0.2-0.2,0.2
				c-0.2,0-0.3,0.1-0.4,0.3c-0.7,0.5-1.4,0.4-2.2,0.4C147.8,116.7,147.4,116.7,147.1,116.4z"/>
			<path class="st42" d="M127.8,82.9c-0.1-0.1-0.2-0.2-0.3-0.3c-0.5-0.7-0.6-1.5-0.2-2.3c0.2-0.3,0.2-0.6,0.7-0.7
				c0.1,0,0.2,0.1,0.3,0.1c0,0.1,0.1,0.1,0.1,0.2c0.9,1,0.8,1.9-0.1,2.9c-0.1,0.1-0.2,0.1-0.3,0.2C128,83,127.9,83,127.8,82.9z"/>
			<path class="st129" d="M150.8,112.4c0,0.1,0.1,0.3,0.1,0.4c0.2,0.2,0.3,0.4,0.3,0.7c-0.1,0.3-0.1,0.7-0.3,0.9
				c-1.2,0-1.6-0.2-1.6-1.4c0-0.3,0-0.6-0.1-0.9c0-0.1,0-0.2,0.1-0.3c0.2-0.2,0.4-0.2,0.6-0.2c0.2,0.2,0.4,0.3,0.6,0.5
				C150.6,112.2,150.7,112.3,150.8,112.4z"/>
			<path class="st130" d="M131.2,79c0.3,0.2,0.5,0.4,0.7,0.7c0.3,0.2,0.3,0.6,0.5,0.9l0,0c0.3,0.4,0.1,0.9,0.1,1.3
				c-0.1,0.2-0.1,0.4-0.2,0.6c-0.1,0.1-0.3,0.1-0.5,0.1c-1.2-0.7-1.3-1-0.7-2.2c0.1-0.3,0.1-0.5,0.1-0.8c0-0.2,0-0.3,0-0.5
				C131.1,79.1,131.2,79.1,131.2,79z"/>
			<path class="st129" d="M131.9,83.2c0,0.1-0.1,0.1-0.1,0.2c-0.3,0.3-0.7,0.4-1,0.7c-0.1,0-0.2,0-0.4,0c-0.3,0-0.7,0-1,0
				c-0.4-0.1-0.6-0.2-0.7-0.6c0-0.6,0.4-0.9,0.9-1.1c0.3,0,0.6,0.1,0.9,0.2c0.3,0.1,0.7,0.2,1,0.3c0.2,0,0.3,0.1,0.4,0.3
				C131.9,83.1,131.9,83.1,131.9,83.2z"/>
			<path class="st131" d="M146.9,112.5c0.2-0.2,0.4-0.4,0.7-0.6c0.3-0.2,0.6-0.1,0.9-0.1c0.3,0.1,0.5,0.1,0.6,0.4
				c-0.1,1.6-0.9,1.9-2.4,1.1C146.4,112.9,146.7,112.7,146.9,112.5z"/>
			<path class="st132" d="M162.5,99c-0.3-0.1-0.5-0.4-0.7-0.6c0,0,0-0.1,0.1-0.1c1.2-1.1,1.2-1.1,2.5-0.1c0.2,0.1,0.4,0.2,0.6,0.3
				c0.1,0.1,0.1,0.2,0.2,0.3c0,0.1,0,0.2-0.1,0.3c-0.2,0-0.3,0-0.5,0c-0.1,0.1-0.2,0.1-0.3,0.1c-0.4-0.1-0.9-0.1-1.3,0
				C162.8,99.1,162.7,99.1,162.5,99z"/>
			<path class="st133" d="M165.9,98.3c-0.2,0.1-0.4,0.1-0.6,0.2c-0.1,0-0.2,0-0.2-0.1c-0.2-0.4-0.4-0.8-0.4-1.3
				c0.1-0.4,0.2-0.7,0.4-1c0.1-0.1,0.2-0.1,0.3-0.2c0.8,0.2,0.5,0.9,0.7,1.3C166.1,97.6,166,98,165.9,98.3z"/>
			<path class="st134" d="M128.1,79.4c0,0,0-0.1,0-0.1c0.1-0.1,0.3-0.1,0.4-0.2c0.2-0.1,0.3-0.1,0.5-0.2c0.1,0,0.3,0,0.4,0.1
				c0.4,0.1,1.1-0.1,1.1,0.5c0,0.5-0.5,0.7-1,0.8c-0.5,0-0.9-0.2-1.2-0.6l0,0C128.2,79.6,128,79.6,128.1,79.4z"/>
			<path class="st41" d="M161.4,95.4c0-0.1,0-0.2,0-0.3c0.1-0.1,0.3-0.1,0.5-0.1c0.5,0.2,0.8,0.4,0.8,1c-0.1,0.4-0.2,0.8-0.5,1.1
				c-0.1,0.1-0.3,0.2-0.5,0.2c-0.6-0.3-0.4-0.9-0.5-1.4C161.2,95.7,161.3,95.5,161.4,95.4z"/>
			<path class="st135" d="M153.5,96.7c0.3-1.3,0.2-2.5,0.2-3.8c0-0.3-0.3-0.7,0.2-0.9c0,0.3,0,0.6,0.1,0.8c0.3,0.4,0.1,0.9,0.3,1.4
				c0,0.2,0,0.3,0,0.5c-0.1,0.4,0.1,1-0.3,1.4c0,0.3,0.1,0.7-0.2,0.9C153.6,97,153.6,96.8,153.5,96.7z"/>
			<path class="st136" d="M145.3,105.8c0.9-0.4,1.8-0.8,2.7-1.2c0.3-0.1,0.3,0,0.3,0.2c-0.8,0.5-1.7,1-2.7,1.2
				C145.3,106.1,145.3,106,145.3,105.8z"/>
			<path class="st137" d="M132.4,101.7c1,0.5,1.6,1.5,2.3,2.3C133.6,103.5,132.8,102.8,132.4,101.7z"/>
			<path class="st138" d="M165.9,98.3c-0.2-0.3,0.1-0.6,0-0.9c-0.2-0.4,0.1-0.7,0.1-1.1c0.1-0.2,0.2-0.4,0.4-0.5
				c0.1,0.2,0.1,0.3,0.2,0.5c0,0.2,0,0.3,0,0.5C166.4,97.3,166.5,97.9,165.9,98.3z"/>
			<path class="st139" d="M134.4,85.2c-0.4,0.8-1,1.5-1.8,1.8C132.9,86.1,133.5,85.5,134.4,85.2z"/>
			<path class="st140" d="M129,79.1c-0.2,0-0.3,0-0.5,0c0.9-0.8,1.9-0.8,2.8,0c0,0,0,0,0,0c-0.1,0.1-0.3,0.2-0.4,0.2
				c-0.5-0.2-1-0.2-1.5-0.1C129.2,79.1,129.1,79.1,129,79.1z"/>
			<path class="st141" d="M127.6,80.2c-0.3,0.8-0.2,1.6,0,2.4c-0.6,0-0.3-0.7-0.6-0.9c-0.2-0.3-0.2-0.6,0-0.9
				c0.1-0.3,0.3-0.6,0.4-0.9C127.6,79.9,127.7,79.9,127.6,80.2z"/>
			<path class="st142" d="M154.1,94.7c0-0.2,0-0.3,0-0.5c-0.1-0.4-0.1-0.9,0-1.3c0,0,0-0.1,0-0.1c0,0,0.1-0.1,0.1-0.1
				c0.2,1.2,0.1,2.4,0,3.6c0,0-0.1,0-0.1,0c0-0.1-0.1-0.1-0.1-0.2C154,95.6,154,95.1,154.1,94.7z"/>
			<path class="st143" d="M144.4,106.4c-1.3,0.1-2.6,0.5-3.9,0.1c0.1-0.2,0.3-0.2,0.5-0.3c0.7-0.1,1.3,0,2-0.1c0.2,0,0.4,0,0.5,0
				C143.8,106.3,144.2,105.8,144.4,106.4z"/>
			<path class="st94" d="M150.7,116c-0.4-0.6-1-0.6-1.6-0.7c0-0.5,0.3-0.4,0.6-0.4c0.4,0,0.7,0,1.1-0.1c0.1,0,0.2,0,0.3,0
				c0.1,0,0.2,0.1,0.2,0.2c0,0.1,0,0.1,0,0.2c-0.1,0.3-0.3,0.6-0.4,0.9C150.9,116.1,150.8,116.1,150.7,116z"/>
			<path class="st119" d="M140.1,82.5c1.1-0.1,2.3-0.2,3.4,0c0.1,0.1,0,0.2-0.1,0.3c-0.9,0.2-1.8,0.1-2.7,0.1
				C140.5,82.7,140.1,82.9,140.1,82.5z"/>
			<path class="st144" d="M148,116.7c0.8,0.2,1.5-0.2,2.3-0.2c-0.1,0.5-0.5,0.5-0.9,0.6c-0.4-0.1-0.7-0.1-1.1,0c0,0,0,0.1,0,0.1
				c-0.2-0.1-0.3-0.2-0.5-0.3C147.8,116.8,147.9,116.8,148,116.7z"/>
			<path class="st2" d="M129.9,96.3c-0.1-1.2-0.1-2.4,0-3.6c0.4,0,0.3,0.4,0.4,0.5c0.1,0.8,0.1,1.7,0,2.5
				C130.2,95.9,130.3,96.3,129.9,96.3z"/>
			<path class="st145" d="M161.4,95.8c0.5,0.3,0,1,0.5,1.4c0.1,0.2-0.1,0.4-0.2,0.5c-0.3,0-0.4-0.1-0.5-0.3c0-0.1,0-0.1,0-0.2
				C160.9,96.7,160.7,96.2,161.4,95.8z"/>
			<path class="st146" d="M148.2,112.1c-0.2-0.1-0.4-0.1-0.7-0.2c0.5-0.9,1.3-0.4,2-0.5c0.1-0.1,0.2,0,0.2,0.1
				c0,0.1,0.1,0.1,0.1,0.2c-0.1,0.3-0.4,0.2-0.6,0.2C149,112,148.5,111.8,148.2,112.1z"/>
			<path class="st147" d="M161.4,95.8c-0.4,0.4-0.2,0.9-0.2,1.4c-0.6-0.6-0.5-1.3,0.2-1.8C161.4,95.5,161.4,95.7,161.4,95.8z"/>
			<path class="st148" d="M152.5,99.7c0.2-0.6,0.4-1.1,0.8-1.6c0,0,0.1,0,0.1,0c0,0.7-0.3,1.3-0.6,1.8
				C152.6,99.9,152.6,99.8,152.5,99.7z"/>
			<path class="st149" d="M132.2,81.8c0.1-0.4,0.1-0.8,0.2-1.2c0.1,0,0.3,0,0.4,0c0.2,0.5,0.2,1.1,0,1.6c-0.1,0-0.1,0-0.2,0
				C132.4,82.2,132.3,81.9,132.2,81.8z"/>
			<path class="st150" d="M130.6,97.9c0.2,0.5,0.4,1.1,0.6,1.6c0,0.1-0.1,0.2-0.2,0.2c-0.3-0.6-0.6-1.1-0.7-1.8
				C130.4,97.8,130.5,97.8,130.6,97.9z"/>
			<path class="st151" d="M139.4,82.9c-0.5,0.3-1.1,0.4-1.6,0.5c-0.1-0.1-0.1-0.1-0.1-0.2c0-0.1,0-0.1,0.1-0.1
				c0.4-0.3,0.9-0.4,1.4-0.4C139.3,82.8,139.4,82.8,139.4,82.9z"/>
			<path class="st152" d="M144.4,106.4c-0.3-0.3-0.6-0.1-0.9-0.2c0,0,0-0.1,0-0.1c0,0,0.1,0,0.1-0.1c0.6,0.1,1.2-0.2,1.8-0.2
				c0.1,0.1,0.2,0.2,0.3,0.2C145.2,106.3,144.7,106.3,144.4,106.4z"/>
			<path class="st153" d="M130.8,90.4c-0.1,0.6-0.2,1.1-0.5,1.6c-0.1,0.1-0.1,0.1-0.2,0c0-0.6,0.1-1.1,0.4-1.6
				C130.6,90.3,130.7,90.3,130.8,90.4z"/>
			<path class="st154" d="M153.9,92c-0.3,0.3-0.1,0.6-0.2,0.9c-0.1-0.6-0.3-1.2-0.4-1.9c0.1-0.1,0.1-0.2,0.2-0.2
				C153.8,91.1,153.7,91.6,153.9,92z"/>
			<path class="st155" d="M137.8,105.6c0.6,0,1,0.3,1.6,0.4c0,0.2,0,0.3-0.2,0.2c-0.5,0-1,0-1.4-0.4
				C137.7,105.8,137.7,105.7,137.8,105.6C137.8,105.6,137.8,105.6,137.8,105.6z"/>
			<path class="st156" d="M132.2,81.8c0.3,0,0.4,0.2,0.4,0.5c-0.1,0.4-0.3,0.8-0.7,0.9c0,0-0.1,0-0.1,0c-0.2-0.3,0-0.5,0.3-0.7
				C132.2,82.2,132.2,82,132.2,81.8z"/>
			<path class="st157" d="M162.5,99c0.1,0,0.3,0,0.4,0c0,0,0.1,0,0.1,0c0.3,0,0.7,0,1,0c0,0,0.1,0,0.1,0c0.1,0,0.2,0,0.3,0
				c0.1,0.2,0,0.4-0.2,0.5c-0.5,0.3-0.9,0.3-1.4,0C162.8,99.3,162.5,99.3,162.5,99z"/>
			<path class="st158" d="M146.4,83.6c-0.5-0.1-1-0.1-1.2-0.7c0.5,0,1,0.1,1.4,0.4C146.7,83.5,146.5,83.5,146.4,83.6z"/>
			<path class="st159" d="M130.8,90.4c-0.1,0-0.2,0-0.3,0c0-0.4,0.1-0.8,0.5-1.1c0.1-0.1,0.2-0.1,0.3,0
				C131.2,89.7,131.1,90.1,130.8,90.4z"/>
			<path class="st160" d="M161.2,97.4c0.1,0.1,0.3,0.2,0.4,0.2c0.3,0.1,0.5,0.3,0.3,0.7c0,0,0,0.1,0,0.1
				C161.3,98.2,160.7,98.2,161.2,97.4z"/>
			<path class="st161" d="M137.8,83.1c0,0.1,0,0.2,0,0.3c-0.3,0.2-0.6,0.3-0.9,0.4c-0.1-0.1-0.2-0.1-0.2-0.2
				C137,83.2,137.4,83.1,137.8,83.1z"/>
			<path class="st162" d="M129.4,83.8c0.3,0,0.7-0.1,1,0.2c-0.5,0.4-1,0.2-1.4,0C129,83.9,129.3,84,129.4,83.8z"/>
			<path class="st163" d="M130.6,97.9c-0.1,0-0.2,0-0.2,0c-0.1-0.3-0.3-0.6-0.4-0.9c0.2-0.1,0-0.6,0.4-0.4
				C130.4,97,130.5,97.4,130.6,97.9z"/>
			<path class="st164" d="M149.8,111.5c-0.1,0-0.2-0.1-0.2-0.1c-0.5-0.4-1.1,0-1.6-0.3C148.6,111.2,149.4,110.5,149.8,111.5z"/>
			<path class="st165" d="M145.9,115.1c-0.7-0.6-0.6-1.2,0.1-1.8c0.1,0.1,0.1,0.3,0.1,0.4c-0.1,0.3-0.1,0.7-0.1,1c0,0,0,0.1,0,0.1
				C146.1,114.9,146,115,145.9,115.1z"/>
			<path class="st166" d="M151.6,113.3c0.7,0.6,0.8,1.2,0,1.8c-0.1-0.1-0.1-0.2-0.1-0.3c0.1-0.3,0.1-0.7,0-1c0-0.1,0-0.2,0-0.3
				C151.5,113.4,151.6,113.3,151.6,113.3z"/>
			<path class="st167" d="M166.4,95.8c0,0.2-0.1,0.4-0.3,0.5c-0.4,0-0.3-0.4-0.5-0.6c0-0.1,0-0.2,0-0.3c0.1-0.1,0.2-0.2,0.3-0.3
				C166.2,95.2,166.4,95.5,166.4,95.8z"/>
			<path class="st168" d="M152.1,88.4c-0.2-0.2-0.4-0.5-0.6-0.7c-0.1-0.1-0.1-0.1-0.1-0.2c0.1-0.1,0.1-0.3,0.3-0.2
				c0.3,0.2,0.5,0.6,0.7,0.9C152.2,88.2,152.2,88.4,152.1,88.4z"/>
			<path class="st169" d="M148.7,104.2c0.4-0.3,0.5-0.9,1.1-0.8C149.6,103.9,149.4,104.5,148.7,104.2z"/>
			<path class="st170" d="M131.3,89.3c-0.1,0-0.2,0-0.3,0c0.1-0.4,0.1-1,0.6-1.2c0.1,0.1,0.1,0.2,0,0.3
				C131.7,88.7,131.5,89,131.3,89.3z"/>
			<path class="st171" d="M151.6,87.2c-0.1,0.1-0.1,0.1-0.2,0.2c-0.4,0.1-0.4-0.2-0.5-0.4c-0.1-0.2-0.3-0.5-0.4-0.7
				C151.1,86.3,151.4,86.8,151.6,87.2z"/>
			<path class="st172" d="M150.1,85.8c-0.6,0-0.7-0.5-0.9-0.9C149.7,85,150,85.3,150.1,85.8z"/>
			<path class="st173" d="M145.9,113.7c0-0.1,0.1-0.3,0.1-0.4c0.1-0.1,0.1-0.2,0.2-0.2c0.3-0.1,0.3,0.1,0.4,0.3c0,0.1,0,0.2,0,0.3
				c-0.2,0.4,0,0.8-0.3,1.2c-0.1,0.1-0.2,0.1-0.3,0l-0.1,0C145.8,114.5,145.8,114.1,145.9,113.7z"/>
			<path class="st174" d="M143.5,82.7c0-0.1,0-0.2,0-0.2c0.4,0,0.9-0.1,1.1,0.4c-0.4,0-0.7,0-1.1,0
				C143.4,82.9,143.4,82.8,143.5,82.7C143.4,82.7,143.4,82.7,143.5,82.7z"/>
			<path class="st114" d="M153.4,98.1c0,0-0.1,0-0.1,0c-0.2-0.5,0.2-0.9,0.2-1.4c0.1,0.1,0.2,0.2,0.2,0.3
				C153.7,97.4,153.8,97.8,153.4,98.1z"/>
			<path class="st175" d="M129.4,83.8c-0.1,0.2-0.3,0.2-0.5,0.2c-0.2,0-0.3-0.1-0.4-0.3c-0.1-0.1-0.1-0.2-0.1-0.3
				c0.1-0.1,0.1-0.1,0.2-0.1C128.9,83.5,129.1,83.8,129.4,83.8z"/>
			<path class="st176" d="M165.9,95.1c-0.1,0.1-0.1,0.2-0.2,0.2c-0.2,0-0.3-0.2-0.4-0.3c-0.1-0.2-0.2-0.3-0.2-0.5
				c0-0.1,0.1-0.2,0.1-0.2C165.7,94.4,165.9,94.6,165.9,95.1z"/>
			<path class="st177" d="M162.1,94.3c0.2-0.4,0.6-0.4,0.9-0.5c0,0,0.1,0.1,0.1,0.1c0,0.1,0,0.2,0,0.3c0,0.1-0.1,0.2-0.2,0.2
				c-0.3,0.2-0.5,0.3-0.8,0.1C162,94.4,162,94.3,162.1,94.3z"/>
			<path class="st178" d="M135.3,84.5c0,0.5-0.4,0.6-0.8,0.7C134.5,84.7,134.8,84.5,135.3,84.5z"/>
			<path class="st179" d="M130.1,92c0.1,0,0.1,0,0.2,0c0,0.4,0,0.8,0,1.1c0,0-0.1,0.1-0.1,0.1c0,0-0.1,0-0.1-0.1
				c-0.1-0.2-0.1-0.3-0.2-0.5C129.9,92.4,129.8,92.1,130.1,92z"/>
			<path class="st180" d="M162.1,94.3c0,0.1,0,0.2,0,0.3c0.1,0.1,0.1,0.2,0.1,0.4c-0.1,0.1-0.2,0.2-0.3,0.2c-0.1,0-0.3,0-0.4,0
				C161.4,94.6,161.7,94.4,162.1,94.3z"/>
			<path class="st181" d="M132.4,80.6c-0.3-0.2-0.4-0.5-0.5-0.9C132.7,79.7,132.6,80.2,132.4,80.6z"/>
			<path class="st182" d="M151,102.2c0.1-0.4,0.4-0.7,0.7-0.9c0.1-0.1,0.2-0.1,0.3,0C151.7,101.7,151.6,102.2,151,102.2z"/>
			<path class="st183" d="M153,90.2c-0.2-0.3-0.4-0.6-0.4-0.9c-0.1-0.2-0.1-0.4,0-0.5c0.3,0.3,0.5,0.7,0.4,1.1
				C153.1,90,153.1,90.1,153,90.2z"/>
			<path class="st2" d="M148.3,84.5c-0.3-0.2-0.6-0.3-0.9-0.5c0-0.2,0-0.3,0.2-0.2c0.4,0,0.6,0.3,0.9,0.5
				C148.5,84.5,148.5,84.6,148.3,84.5z"/>
			<path class="st184" d="M146.4,113.5c0-0.2,0-0.3-0.2-0.4c-0.1-0.5,0.2-0.6,0.7-0.6c-0.1,0.3-0.1,0.6-0.2,0.9c0,0.1,0,0.1-0.1,0.2
				C146.5,113.6,146.4,113.6,146.4,113.5z"/>
			<path class="st185" d="M130.8,84c0.1-0.6,0.6-0.6,1-0.7C131.6,83.8,131.3,84,130.8,84z"/>
			<path class="st186" d="M152.5,99.7c0.1,0.1,0.2,0.2,0.3,0.2c-0.2,0.3-0.3,0.6-0.5,0.9c-0.2,0-0.3,0-0.2-0.2
				C152.2,100.3,152.4,100,152.5,99.7z"/>
			<path class="st32" d="M147.6,83.8c-0.1,0.1-0.2,0.1-0.2,0.2c-0.3-0.1-0.6-0.3-0.9-0.4c0.1-0.1,0.2-0.2,0.2-0.2
				C147,83.4,147.3,83.5,147.6,83.8z"/>
			<path class="st187" d="M164.3,99.7c-0.5,0.5-0.9,0.3-1.4,0C163.4,99.5,163.9,99.5,164.3,99.7z"/>
			<path class="st188" d="M151.6,113.3c0,0.1,0,0.2,0,0.2c0,0.1-0.1,0.2-0.1,0.2c-0.1,0-0.2,0-0.3,0c0-0.1-0.1-0.1-0.1-0.2
				c0-0.1,0-0.1,0-0.1c-0.1-0.2-0.1-0.5-0.2-0.7C151.4,112.7,151.4,113.1,151.6,113.3z"/>
			<path class="st189" d="M151.4,113.7c0.1-0.1,0.1-0.1,0.2-0.2c0,0.1,0.1,0.1,0.1,0.2c0.1,0.4,0.1,0.8,0,1.1c0,0.1,0,0.1,0,0.2
				c-0.1,0-0.2,0-0.2,0l0,0C151.2,114.6,151.1,114.2,151.4,113.7z"/>
			<path class="st190" d="M152.6,88.7c0,0.2,0,0.4,0,0.5c-0.3-0.2-0.4-0.5-0.5-0.9c0.1-0.1,0.1-0.2,0.2-0.3
				C152.4,88.3,152.5,88.5,152.6,88.7z"/>
			<path class="st2" d="M153,90.2c0-0.1,0-0.2,0.1-0.4c0.3,0.3,0.4,0.6,0.5,1c-0.1,0.1-0.2,0.2-0.2,0.2C153,90.8,153,90.5,153,90.2z
				"/>
			<path class="st191" d="M148.3,84.5c0.1-0.1,0.1-0.1,0.2-0.2c0.3,0.1,0.7,0.2,0.7,0.7C148.8,84.9,148.5,84.8,148.3,84.5z"/>
			<path class="st192" d="M134.6,104c0.4,0,0.7,0.1,0.9,0.5C135,104.7,134.8,104.4,134.6,104z"/>
			<path class="st193" d="M132.8,82.2c0-0.5,0-1.1,0-1.6C133.2,81.2,133.2,81.7,132.8,82.2z"/>
			<path class="st194" d="M135.8,104.8c0.5-0.1,0.8,0,0.9,0.5C136.3,105.3,135.9,105.2,135.8,104.8z"/>
			<path class="st195" d="M132.6,87c0,0.4-0.2,0.7-0.5,0.9c-0.1,0-0.2-0.1-0.2-0.2C132.1,87.3,132.2,87,132.6,87z"/>
			<path class="st196" d="M165.2,94.2c0,0.1,0,0.2,0,0.3c-0.3,0.2-0.6,0-0.8-0.2c-0.1-0.1-0.1-0.1-0.2-0.2c0-0.1,0-0.2,0-0.3
				c0,0,0.1-0.1,0.1-0.1C164.6,94,165,93.9,165.2,94.2z"/>
			<path class="st2" d="M137.8,105.6c0,0.1,0,0.1,0,0.2c-0.4,0-0.7-0.1-0.9-0.5C137.3,105.2,137.5,105.5,137.8,105.6z"/>
			<path class="st197" d="M139.2,106.3c0.1-0.1,0.2-0.2,0.2-0.2c0.3,0,0.6,0,0.9,0c0,0,0.1,0.1,0.1,0.1c0,0.1-0.1,0.2-0.2,0.2
				c-0.2,0-0.4,0-0.5,0.1C139.5,106.5,139.3,106.4,139.2,106.3z"/>
			<path class="st198" d="M154.1,94.7c0,0.4,0,0.9,0,1.3c-0.1,0-0.1,0-0.2,0.1C154,95.6,153.7,95.1,154.1,94.7z"/>
			<path class="st143" d="M139.6,106.4c0.2-0.2,0.5-0.2,0.7-0.2c0.2-0.2,0.4-0.2,0.6,0c0.1,0.1,0.1,0.1,0.1,0.2c0,0.1,0,0.1,0,0.1
				c-0.2,0-0.3,0-0.5,0C140.2,106.5,139.9,106.5,139.6,106.4z"/>
			<path class="st2" d="M136.7,83.6c0.1,0.1,0.2,0.2,0.2,0.2c-0.3,0.2-0.6,0.3-0.9,0.3C136.1,83.7,136.4,83.7,136.7,83.6z"/>
			<path class="st199" d="M131.5,100.1c0.1,0.2,0.3,0.5,0.4,0.7c0.1,0.2,0,0.3-0.2,0.2c-0.1-0.2-0.3-0.5-0.4-0.7
				C131.3,100.2,131.3,100.1,131.5,100.1z"/>
			<path class="st200" d="M164.3,99.7c-0.5,0-0.9,0-1.4,0c0-0.1,0-0.1,0-0.2c0.5,0,0.9,0,1.4,0C164.3,99.5,164.3,99.6,164.3,99.7z"
				/>
			<path class="st201" d="M131.5,100.1c-0.1,0.1-0.1,0.2-0.2,0.3c-0.1-0.2-0.2-0.4-0.3-0.6c0.1-0.1,0.1-0.2,0.2-0.2
				C131.3,99.7,131.4,99.9,131.5,100.1z"/>
			<path class="st202" d="M130.3,96.5c-0.1,0.1-0.3,0.3-0.4,0.4c0-0.2,0-0.5,0-0.7c0.1-0.2,0.1-0.3,0.2-0.5c0,0,0.1,0,0.1-0.1
				c0,0,0.1,0.1,0.1,0.1C130.3,96.1,130.3,96.3,130.3,96.5z"/>
			<path class="st121" d="M127,80.9c0,0.3,0,0.6,0,0.9c-0.5-0.1-0.1-0.5-0.2-0.7c0-0.1,0-0.3,0-0.4C126.8,80.7,126.9,80.8,127,80.9z
				"/>
			<path class="st203" d="M164.3,93.6c0,0.1,0,0.1,0,0.2c0,0,0,0.1,0,0.1c-0.5,0.3-0.9,0.3-1.4,0l0-0.1c0-0.1,0-0.1,0-0.2
				C163.4,93.4,163.9,93.4,164.3,93.6z"/>
			<path class="st204" d="M164.3,93.6c-0.5,0-0.9,0-1.4,0C163.4,93.2,163.9,93.2,164.3,93.6z"/>
			<path class="st205" d="M140.1,82.5c0.2,0.1,0.3,0.1,0.5,0.2l0.1,0.1l-0.1,0.1c-0.2,0-0.5,0-0.7,0c-0.1-0.1-0.4,0-0.5-0.2
				C139.6,82.4,139.8,82.4,140.1,82.5z"/>
			<path class="st198" d="M154.1,92.9c0,0.4,0,0.9,0,1.3c-0.4-0.4-0.1-0.9-0.2-1.4C154,92.9,154.1,92.9,154.1,92.9z"/>
			<path class="st206" d="M146.5,115.3c0.2,0.3,0.4,0.6,0.5,1c-0.3,0.1-0.4-0.1-0.6-0.2c-0.1-0.2-0.1-0.3-0.2-0.5
				C146.3,115.4,146.3,115.3,146.5,115.3z"/>
			<path class="st207" d="M146.5,115.3c-0.1,0.1-0.2,0.2-0.2,0.3c-0.1-0.1-0.2-0.3-0.3-0.4c0-0.1,0-0.2,0-0.2c0.1,0,0.1,0,0.2,0
				c0.1-0.1,0.2-0.1,0.3,0c0.1,0.1,0.1,0.2,0,0.3C146.4,115.1,146.4,115.2,146.5,115.3z"/>
			<path class="st151" d="M148.2,104.9c-0.1-0.1-0.2-0.2-0.3-0.2c0.2-0.1,0.5-0.3,0.7-0.4C148.8,104.6,148.5,104.8,148.2,104.9z"/>
			<path class="st2" d="M131.9,87.7c0.1,0.1,0.1,0.1,0.2,0.2c-0.1,0.2-0.2,0.4-0.4,0.5c0-0.1,0-0.2,0-0.3
				C131.8,87.9,131.8,87.8,131.9,87.7z"/>
			<path class="st208" d="M131.7,101c0.1-0.1,0.2-0.2,0.2-0.2c0.2,0.2,0.4,0.4,0.4,0.7C132,101.5,131.8,101.3,131.7,101z"/>
			<path class="st209" d="M148.2,117.1c0.4-0.2,0.7-0.3,1.1,0C149,117.2,148.6,117.2,148.2,117.1z"/>
			<path class="st210" d="M152.1,100.6c0.1,0.1,0.1,0.2,0.2,0.2c-0.1,0.2-0.2,0.4-0.4,0.5c-0.1,0-0.2,0-0.3,0
				C151.7,101,151.9,100.7,152.1,100.6z"/>
			<path class="st85" d="M139.4,82.7c0.2,0.1,0.3,0.1,0.5,0.2c-0.1,0-0.3,0-0.4,0c-0.1-0.1-0.2-0.1-0.2-0.2
				C139.2,82.7,139.3,82.7,139.4,82.7z"/>
			<path class="st211" d="M128.6,83.3c0,0.1,0,0.3,0,0.4c-0.1,0-0.2,0-0.2-0.2c0-0.1-0.1-0.1,0-0.2c0-0.1,0-0.1,0-0.1
				c0,0,0.1,0,0.1-0.1C128.5,83.3,128.5,83.3,128.6,83.3z"/>
			<path class="st212" d="M128.3,83.4c0,0.1,0,0.2,0,0.2c-0.1,0-0.2-0.1-0.2-0.2c0,0,0.1-0.1,0.1-0.1
				C128.1,83.3,128.2,83.3,128.3,83.4C128.2,83.3,128.3,83.4,128.3,83.4z"/>
			<path d="M150.8,112.4c-0.2,0-0.3,0-0.3-0.2C150.6,112.2,150.7,112.3,150.8,112.4z"/>
			<path class="st19" d="M128.1,83.3c-0.2,0-0.2-0.1-0.2-0.2c0,0,0.1-0.1,0.1-0.1c0,0,0.1,0,0.1,0.1
				C128.2,83.2,128.1,83.3,128.1,83.3L128.1,83.3z"/>
			<path d="M165,99c0-0.1,0-0.1,0-0.2c0.1-0.1,0.2-0.2,0.3-0.2C165.3,98.7,165.3,99,165,99z"/>
			<path class="st213" d="M150.9,116.2c-0.1,0.3-0.2,0.1-0.3,0c0,0,0.1,0,0.1,0C150.8,116.1,150.9,116.1,150.9,116.2z"/>
			<path class="st214" d="M150.9,116.2L150.9,116.2c-0.1,0-0.2,0-0.2,0c0-0.1,0-0.1,0-0.2c0.1,0,0.1,0,0.2,0
				C151,116.1,151,116.1,150.9,116.2z"/>
			<path class="st215" d="M165.3,98.5c-0.1,0.1-0.2,0.2-0.3,0.2c0-0.1,0-0.1,0-0.2C165.1,98.5,165.2,98.5,165.3,98.5
				C165.3,98.5,165.3,98.5,165.3,98.5C165.3,98.5,165.3,98.5,165.3,98.5z"/>
			<path class="st216" d="M128.1,83.1c-0.1,0-0.2,0-0.2,0c0-0.1,0-0.1,0-0.2c0.1,0,0.1,0,0.2,0C128.1,82.9,128.1,83,128.1,83.1
				C128.1,83.1,128.1,83.1,128.1,83.1z"/>
			<path class="st217" d="M127.6,80.2c-0.1-0.1-0.1-0.2-0.2-0.2c0.1-0.4,0.3-0.5,0.7-0.6c0.1,0.1,0.2,0.2,0.2,0.3
				C128,79.7,127.8,80,127.6,80.2z"/>
			<path class="st218" d="M148,116.7c-0.1,0.1-0.2,0.1-0.2,0.2c-0.3-0.1-0.6-0.1-0.7-0.5C147.4,116.4,147.7,116.6,148,116.7z"/>
			<path d="M103.4,89.5c0.5,0.5,0.9,0.9,1.4,1.4c0.3,0.5,0.6,0.9,0.8,1.5c0.1,0.4,0.3,0.9,0.3,1.4c0,0.7,0.1,1.5,0,2.2
				c-0.2,0.4-0.3,0.9-0.5,1.3c-0.2,0.4-0.3,0.7-0.6,1c-0.3,0.3-0.6,0.7-0.9,1c-0.2,0.4-0.6,0.4-0.9,0.6c-0.2,0.1-0.4,0.1-0.3,0.4
				c-0.3,0-0.6,0.2-0.9,0.3c-0.8,0.3-1.7,0.4-2.6,0.3c-0.6-0.1-1.3-0.2-1.9-0.5c-1.1-0.5-2-1.2-2.6-2.2c-0.3-0.3-0.4-0.7-0.6-1
				c-0.3-0.6-0.3-1.2-0.4-1.9c0-0.4,0-0.8,0-1.2c0.1-0.6,0.2-1.3,0.6-1.9c0.3-0.1,0.3-0.4,0.4-0.7c0.2-0.3,0.2-0.7,0.6-0.9
				c0.3-0.3,0.7-0.6,1-0.9c0.3-0.3,0.6-0.4,1-0.6c0.4-0.3,0.9-0.2,1.3-0.5c0.8-0.1,1.6-0.1,2.4,0c0.4,0.1,0.7,0.2,1,0.4
				c0.2,0.2,0.4,0.1,0.6,0C102.7,89,103,89.3,103.4,89.5z"/>
			<path class="st219" d="M100.9,88.5c-0.9,0-1.8,0-2.7,0c-0.1,0-0.1-0.1-0.1-0.1c0,0,0-0.1,0.1-0.1c1-0.5,2-0.3,3-0.1
				C101.1,88.4,101,88.5,100.9,88.5z"/>
			<path class="st220" d="M99.1,100.5c0.9,0,1.8,0,2.7-0.4c0.1,0.1,0.1,0.3,0,0.4c-1.1,0.4-2.2,0.3-3.4,0.2
				C98.5,100.2,98.8,100.5,99.1,100.5z"/>
			<path class="st221" d="M105.7,93.6c-0.1-0.4-0.2-0.9-0.3-1.3c0.1-0.1,0.2-0.1,0.2,0c0.7,1.1,0.5,2.2,0.5,3.4
				C105.4,95,106,94.2,105.7,93.6z"/>
			<path class="st222" d="M101.1,82.7c0.1,0.1,0.2,0.1,0.3,0.2c-0.1,0-0.2,0-0.3,0.1c-0.9,0.1-1.8,0.1-2.7,0
				c-0.2-0.1-0.3-0.1-0.5-0.2C99,82.7,100,82.7,101.1,82.7z"/>
			<path class="st223" d="M93.6,95.1c0.2,0.6,0.3,1.2,0.5,1.8C94,97,94,97,93.9,96.9c-0.4-0.3-0.4-0.7-0.5-1.1
				C93.6,95.6,93.4,95.3,93.6,95.1z"/>
			<path class="st224" d="M105.7,93.6c0.5,0.6-0.1,1.4,0.4,2c0,0.2,0,0.4-0.2,0.5c-0.1,0.1-0.2,0.1-0.2,0
				C105.6,95.2,105.6,94.4,105.7,93.6z"/>
			<path class="st225" d="M99.1,100.5c-0.2,0.1-0.5,0.1-0.7,0.2c-0.4-0.2-1,0-1.2-0.6C97.9,100.1,98.5,100.4,99.1,100.5z"/>
			<path class="st226" d="M98.4,82.9c0.9,0,1.8,0,2.7,0C100.2,83.2,99.3,83.3,98.4,82.9z"/>
			<path class="st227" d="M93.6,95.1c-0.1,0.2,0,0.5-0.2,0.7c-0.1-0.9-0.1-1.8,0-2.7c0.5,0.1,0.2,0.4,0.2,0.7
				C93.6,94.3,93.6,94.7,93.6,95.1z"/>
			<path class="st228" d="M93.6,93.8c-0.1-0.2-0.1-0.5-0.2-0.7c0.1-0.5,0.1-1,0.6-1.2C93.9,92.6,93.8,93.2,93.6,93.8z"/>
			<path class="st229" d="M105.6,92.2c-0.1,0-0.2,0-0.2,0c-0.3-0.4-0.6-0.8-0.6-1.4C105.3,91.1,105.5,91.6,105.6,92.2z"/>
			<path class="st230" d="M105.6,96c0.1,0,0.2,0,0.2,0c0,0.4-0.1,0.8-0.4,1.2c-0.1,0.1-0.2,0.1-0.3,0
				C105.3,96.8,105.5,96.4,105.6,96z"/>
			<path class="st231" d="M98.2,88.4c0,0.1,0,0.1,0,0.2c-0.3,0.3-0.7,0.3-1.1,0.5c-0.1-0.1-0.1-0.2,0-0.3
				C97.3,88.3,97.8,88.6,98.2,88.4z"/>
			<path class="st232" d="M93.9,96.9c0.1,0,0.1,0,0.2,0c0.3,0.3,0.5,0.6,0.5,1C94.1,97.8,93.8,97.5,93.9,96.9z"/>
			<path class="st233" d="M105.2,97.2c0.1,0,0.2,0,0.3,0c-0.1,0.4-0.2,0.8-0.7,0.9C104.6,97.7,104.9,97.5,105.2,97.2z"/>
			<path class="st234" d="M97,88.7c0,0.1,0,0.2,0,0.3c-0.3,0.2-0.5,0.5-0.9,0.4C96.1,89,96.6,88.9,97,88.7z"/>
			<path class="st235" d="M103.4,89.5c-0.5,0-0.9-0.1-1-0.6C102.9,88.8,103.2,89,103.4,89.5z"/>
			<path class="st236" d="M100.9,88.5c0.1-0.1,0.2-0.2,0.3-0.3c0.3,0,0.7,0.1,0.7,0.5C101.5,88.7,101.2,88.6,100.9,88.5z"/>
			<path class="st237" d="M102.9,99.7c0.2-0.4,0.5-0.5,0.9-0.6C103.7,99.6,103.4,99.9,102.9,99.7z"/>
			<path class="st238" d="M95.1,90.4c-0.1,0.4-0.2,0.7-0.6,0.9C94.3,90.7,94.6,90.5,95.1,90.4z"/>
			<path class="st239" d="M93.6,84.5c0.1-0.1,0.3-0.2,0.4-0.2c0.2,0.1,0.2,0.2,0,0.3C93.9,84.7,93.7,84.7,93.6,84.5z"/>
			<path class="st240" d="M101.8,100.5c0-0.1,0-0.3,0-0.4c0.3,0,0.5-0.5,0.8,0C102.4,100.4,102.1,100.5,101.8,100.5z"/>
			<path class="st94" d="M111.5,80.2c0.2-0.3,0.4-0.3,0.7,0C112,80.4,111.7,80.4,111.5,80.2z"/>
			<path class="st241" d="M93.6,111.7c0,0.1,0,0.1,0.1,0.2c-0.3,0.2-0.7,0.1-0.9,0.3c-0.2-0.1-0.5-0.2-0.7-0.2
				C92.5,111.5,93,111.7,93.6,111.7z"/>
			<path class="st204" d="M92.7,112.2c0.2-0.4,0.6-0.2,0.9-0.3c0.1,0.1,0.1,0.2,0.2,0.2c-0.3,0-0.7-0.1-0.9,0.3
				C92.8,112.3,92.8,112.2,92.7,112.2z"/>
			<path class="st242" d="M95.6,113.6C95.6,113.6,95.6,113.5,95.6,113.6c0.4,0.5,0.3,1,0,1.6C95.7,114.7,95.4,114.1,95.6,113.6z"/>
			<path class="st40" d="M76.6,98.6c-0.1,0-0.2,0-0.2,0c-0.1-0.4,0.2-0.8,0.5-1.1c0.3-0.4,0.4-0.8,0-1.1c-0.2,0.1-0.3,0.1-0.4-0.1
				c0-0.1,0-0.1,0-0.2c-0.3-0.4-0.2-0.7,0.3-0.9c0.2,0.1,0.5,0.2,0.7,0.2c0.5-0.1,1,0,1.4-0.4c0.2-0.4,0.4,0,0.7,0
				c0.5,0.1,0.5,0.4,0.1,0.7c-0.1,0.1-0.1,0.1-0.2,0.2c-0.3,0.5-0.2,1,0.2,1.4c0.5,0.3,0.4,0.7,0.4,1.2c-0.2,0-0.3,0-0.4,0.2
				c-0.9-1.1-1.3-1.1-2.3-0.2C77.1,98.5,76.8,98.5,76.6,98.6z"/>
			<path class="st243" d="M77.3,99c-0.1,0-0.1,0-0.2,0c0.6-0.3,1.2-0.3,1.8,0c-0.1,0-0.1,0.1-0.2,0.1C78.2,99.1,77.7,99.2,77.3,99z"
				/>
			<path class="st94" d="M75.8,97.6c0-0.1-0.1-0.3-0.1-0.4c-0.1-0.5-0.1-1,0-1.4c0,0,0,0,0,0c0.1,0.1,0.2,0.2,0.2,0.2
				C75.9,96.6,76.1,97.1,75.8,97.6z"/>
			<path class="st244" d="M76.4,96.2c0.1,0,0.3,0.1,0.4,0.1c0,0.2,0,0.4,0,0.6c0,0-0.1,0-0.1,0C76.6,96.7,76.5,96.5,76.4,96.2z"/>
			<path class="st245" d="M79.6,97.1c-0.8-0.3-1-0.8-0.2-1.4C79.4,96.2,79.5,96.7,79.6,97.1z"/>
			<path class="st246" d="M79.5,95.6c0.2-0.3,0.1-0.5-0.1-0.7c0-0.1,0-0.1,0-0.2c0.3,0,0.6,0.2,0.7,0.5c-0.2,0.1-0.2,0.3-0.2,0.5
				C79.7,95.6,79.6,95.6,79.5,95.6z"/>
			<path class="st247" d="M80.4,97.2c-0.1,0-0.1,0-0.2,0c0-0.4,0-0.8,0-1.2c0.1,0,0.1,0,0.2,0C80.7,96.4,80.7,96.8,80.4,97.2z"/>
			<path class="st248" d="M78.7,94.9c-0.3,0.8-0.7,1-1.4,0.4c0.1-0.2-0.3-0.5,0.2-0.7C78,94.5,78.3,94.5,78.7,94.9z"/>
			<path class="st249" d="M77.5,94.2c0.4-0.2,0.8-0.3,1.1,0.1C78.3,94.2,77.9,94.2,77.5,94.2z"/>
			<path class="st250" d="M77.3,99c0.5,0,0.9,0,1.4,0c0,0.1,0,0.1,0,0.2C78.2,99.2,77.7,99.3,77.3,99z"/>
			<path class="st251" d="M80.4,97.2c0-0.4,0-0.7,0-1.1c0.1-0.1,0.2-0.1,0.3-0.2c0,0.4,0,0.9,0,1.3C80.6,97.2,80.5,97.2,80.4,97.2z"
				/>
			<path class="st252" d="M75.7,95.8c0,0.5,0,1,0,1.4c-0.1,0-0.1,0-0.2-0.1C75.5,96.7,75.4,96.2,75.7,95.8z"/>
			<path d="M136.9,91c0.5-0.5,0.9-1,1.4-1.5c0.4-0.2,0.7-0.4,1-0.7c0.2,0.1,0.3,0.1,0.5,0c0.3-0.2,0.7-0.4,1.1-0.4
				c0.8,0,1.6-0.1,2.4,0c0.4,0.2,0.9,0.2,1.3,0.5c0.3,0.2,0.7,0.3,1,0.6c0.4,0.3,0.8,0.6,1.2,0.9c0.1,0.4,0.5,0.7,0.7,1
				c-0.1,0.4,0.1,0.6,0.4,0.7c0.1,0.6,0.3,1.2,0.3,1.8c0,0.4,0,0.8,0,1.2c-0.1,0.6-0.2,1.2-0.4,1.8c-0.1,0.4-0.3,0.7-0.6,1
				c-0.5,1.1-1.7,1.4-2.4,2.2c-0.7,0.2-1.5,0.5-2.2,0.6c-0.4,0-0.8,0-1.2,0c-0.8-0.1-1.6-0.3-2.3-0.7c-0.3-0.2-0.6-0.5-0.9-0.7
				c-0.1-0.2-0.3-0.1-0.4-0.2c-0.3-0.2-0.2-0.7-0.7-0.8c-0.2-0.3-0.4-0.6-0.6-1c-0.2-0.4-0.3-0.8-0.4-1.2l0,0
				c-0.5-0.7-0.1-1.5-0.2-2.3c0-0.5,0.2-1,0.3-1.4C136.3,91.8,136.5,91.4,136.9,91z"/>
			<path class="st253" d="M143.5,88.6c-0.9,0-1.8,0-2.7,0c-0.1-0.1-0.3-0.1-0.3-0.3c1-0.3,2-0.4,3,0.1
				C143.5,88.4,143.6,88.5,143.5,88.6C143.5,88.6,143.5,88.6,143.5,88.6z"/>
			<path class="st254" d="M136.3,92.2c-0.1,0.5-0.2,0.9-0.3,1.4c-0.3,0.6,0.3,1.4-0.4,2c-0.1-1.2-0.3-2.3,0.5-3.4
				C136.1,92.1,136.2,92.1,136.3,92.2z"/>
			<path class="st255" d="M140.3,106c1.1-0.4,2.1-0.4,3.2,0c0,0,0,0,0,0C142.4,106.4,141.4,106.3,140.3,106L140.3,106z"/>
			<path class="st256" d="M138.9,99.9c0.8,0.2,1.6,0.4,2.3,0.6c-0.1,0.2-0.4,0.1-0.5,0.2C140.1,100.6,139.4,100.6,138.9,99.9z"/>
			<path class="st257" d="M140.5,82.9c0-0.1,0-0.1,0-0.2c1,0,1.9,0,2.9,0c0,0.1,0,0.1,0.1,0.2c-0.1,0-0.2,0-0.3,0.1
				c-0.9,0.1-1.8,0.1-2.7,0L140.5,82.9z"/>
			<path class="st258" d="M142.5,100.5c0.7-0.1,1.4-0.6,2.2-0.4c-0.4,0.5-0.9,0.5-1.4,0.6C143,100.6,142.7,100.8,142.5,100.5z"/>
			<path class="st259" d="M147.5,96.9c0.2-0.6,0.3-1.2,0.5-1.8c0.3,0.2,0,0.5,0.2,0.7c-0.1,0.4-0.1,0.8-0.4,1.1
				C147.7,97,147.6,97,147.5,96.9z"/>
			<path class="st260" d="M135.6,95.6c0.5-0.6-0.1-1.4,0.4-2c0,0.8,0,1.7,0.1,2.5C135.8,96,135.5,95.9,135.6,95.6z"/>
			<path class="st261" d="M140.6,83c0.9,0,1.8,0,2.7,0C142.3,83.3,141.4,83.2,140.6,83z"/>
			<path class="st32" d="M148.2,95.8c-0.2-0.2-0.1-0.5-0.2-0.7c0-0.4,0-0.9,0-1.3c0-0.3-0.3-0.6,0.2-0.7
				C148.3,94,148.3,94.9,148.2,95.8z"/>
			<path class="st261" d="M130.3,93.1c0.4,0.9,0.4,1.8,0,2.7c0,0,0,0,0,0C130.2,94.9,130.2,94,130.3,93.1L130.3,93.1z"/>
			<path class="st220" d="M142.5,100.5c0.2,0.1,0.5,0.1,0.7,0.2c-0.8,0.1-1.6,0.1-2.5,0c0.2-0.1,0.3-0.2,0.5-0.2
				C141.7,100.5,142.1,100.5,142.5,100.5z"/>
			<path class="st262" d="M136.3,92.2c-0.1,0-0.1,0-0.2,0c0.1-0.5,0.2-1.1,0.8-1.2C136.8,91.5,136.5,91.8,136.3,92.2z"/>
			<path class="st263" d="M143.5,88.6c0-0.1,0-0.1,0-0.2c0.4,0,0.8,0.1,1.1,0.4c0.1,0.1,0.1,0.2,0,0.3
				C144.2,88.9,143.8,88.7,143.5,88.6z"/>
			<path class="st264" d="M148.2,93.1c-0.1,0.2-0.1,0.5-0.2,0.7c-0.1-0.6-0.6-1.1-0.2-1.8C148.1,92.3,148.1,92.7,148.2,93.1z"/>
			<path class="st265" d="M136,96c0.3,0.3,0.3,0.7,0.5,1.1c-0.1,0.1-0.2,0.1-0.3,0C135.8,96.9,135.7,96.5,136,96z"/>
			<path class="st266" d="M147.5,96.9c0.1,0,0.2,0,0.3,0c0,0.4-0.2,0.8-0.7,1C147,97.5,147.3,97.2,147.5,96.9z"/>
			<path class="st267" d="M136.2,97.2c0.1,0,0.2,0,0.3,0c0.2,0.3,0.6,0.6,0.5,1C136.5,98,136.3,97.7,136.2,97.2z"/>
			<path class="st268" d="M147.3,91.3c-0.4-0.2-0.9-0.4-0.7-1C147.1,90.5,147.4,90.8,147.3,91.3z"/>
			<path class="st2" d="M144.6,89.1c0-0.1,0-0.2,0-0.3c0.4,0.2,0.8,0.3,0.9,0.7C145.1,89.5,144.9,89.3,144.6,89.1z"/>
			<path class="st269" d="M139.2,88.8c-0.1,0.5-0.5,0.7-1,0.7C138.4,89,138.8,88.8,139.2,88.8z"/>
			<path class="st270" d="M150.9,87c0.2,0.1,0.3,0.3,0.5,0.4c0,0.1,0,0.2,0,0.2C150.9,87.6,150.8,87.5,150.9,87z"/>
			<path class="st271" d="M140.5,88.3c0.1,0.1,0.2,0.2,0.3,0.3c-0.3,0.1-0.7,0.2-1,0.3C139.8,88.4,140.1,88.3,140.5,88.3z"/>
			<path class="st2" d="M137.6,99c0.2,0,0.4-0.1,0.4,0.2C137.9,99.2,137.6,99.3,137.6,99z"/>
			<path class="st272" d="M146.7,113.4C146.7,113.4,146.7,113.4,146.7,113.4c0.1-0.1,0.2-0.1,0.3-0.1c1.2,0.5,1.8,0,2-1.2
				c0.1-0.1,0.3-0.2,0.4,0c0.2,0.1,0.5,0.2,0.3,0.5c-0.6,1.3,0.3,1.5,1.2,1.8c0.1,0.1,0.2,0.3,0,0.4c-0.3,0.3-0.5,0.6-1,0.3
				c-0.3-0.2-0.6-0.2-0.8,0.2c-0.1,0.1-0.2,0.3-0.3,0.3c-0.3,0.2,0,0.9-0.6,0.7c-0.7-0.2-0.3-0.6-0.2-1c0.1-1-0.7-1-1.4-1.2
				C146.4,113.9,146.5,113.7,146.7,113.4z"/>
			<path class="st273" d="M146.7,113.4c0,0.2,0,0.5,0,0.7c-0.1,0.3,0.1,0.7-0.2,0.9c0-0.1-0.1-0.1-0.1-0.2c-0.1-0.5-0.1-0.9,0-1.4
				l0,0C146.5,113.5,146.6,113.4,146.7,113.4z"/>
			<path class="st272" d="M128.7,83.4L128.7,83.4c-0.1,0-0.1,0-0.1,0c0,0,0,0,0,0c-0.1-0.1-0.2-0.2-0.2-0.3c0,0,0-0.1,0-0.1
				c0,0,0-0.1,0-0.1c-0.2-0.7,0.9-0.8,0.7-1.5c-0.2-0.5-1-0.8-0.7-1.6c0.5-0.2,0.7,0.3,1.1,0.5c0.4,0,0.8-0.1,1-0.5
				c0.2-0.2,0.4-0.6,0.7-0.2c0.1,0.3,0.6,0.5,0.1,0.8c-1.1,0.9-0.4,1.5,0.4,2.1c0.1,0.2,0,0.4-0.1,0.5c-0.4,0.1-0.8,0.1-1.1-0.3
				c-0.2-0.2-0.6-0.2-0.9-0.3C129.2,82.6,128.9,83,128.7,83.4z"/>
			<path class="st274" d="M128.1,83.1c0-0.1,0-0.1,0-0.2c0.1,0,0.2,0,0.2,0c0,0,0,0,0,0c0,0.1,0.1,0.1,0.1,0.2c0,0.1,0,0.1,0,0.1
				C128.2,83.2,128.1,83.2,128.1,83.1L128.1,83.1z"/>
			<path class="st275" d="M149.4,112.2c-0.1,0-0.3,0-0.4,0c-0.3,0-0.5,0-0.8,0c0.3-0.6,0.7-0.4,1.2-0.3
				C149.4,111.9,149.4,112,149.4,112.2z"/>
			<path class="st276" d="M151,114.9c0-0.1,0-0.3,0-0.4c0.1-0.3-0.1-0.7,0.2-0.9c0,0.1,0.1,0.1,0.1,0.2c0,0.4,0.2,0.8-0.1,1.1
				L151,114.9L151,114.9z"/>
			<path class="st166" d="M131.2,79.6c-0.4-0.1-0.6,0.2-0.8,0.5c-0.3,0.4-0.6,0.5-1,0.2c0.2-0.4,0.9-0.2,1-0.8
				c-0.4-0.3-1,0.1-1.4-0.3c0,0,0.1-0.1,0.2-0.1c0.6-0.1,1.1-0.1,1.7,0c0.1,0,0.3,0,0.4,0C131.2,79.2,131.2,79.4,131.2,79.6z"/>
			<path class="st277" d="M131.6,83c0-0.2,0.1-0.3,0.1-0.5c0.1,0,0.3,0,0.4,0c-0.1,0.2-0.2,0.5-0.3,0.7
				C131.8,83.1,131.7,83,131.6,83z"/>
			<path class="st122" d="M129.6,82.4c0.4-0.2,0.7-0.2,0.9,0.3C130.2,82.6,129.9,82.8,129.6,82.4z"/>
			<path class="st278" d="M165.3,98.5c-0.1,0-0.2,0-0.2,0c-0.1,0-0.2,0-0.3-0.1c-0.2-0.1-2.7-0.3-2.8-0.2c-0.1-0.2-0.2-0.4-0.3-0.7
				c0.1-0.1,0.2-0.3,0.3-0.4c0.1-0.1,0.1-0.1,0.2-0.2c0.4-0.2,0.3-0.6,0.4-0.9c0.1-0.5-0.5-0.6-0.7-0.9c0.1-0.1,0.2-0.1,0.2-0.2
				c0.3-0.3,0.6-0.4,1-0.1c0.4,0.3,0.9,0.3,1.4,0.2c0.3-0.1,0.6-0.3,1-0.1c0.1,0.2,0.2,0.3,0.3,0.5c0,0.1,0,0.2,0,0.3
				c0.1,0.4-0.4,0.2-0.5,0.4c0,0.1-0.1,0.1,0,0.2c-0.3,0.2-0.5,0.6-0.5,1C165,97.6,165.4,98,165.3,98.5z"/>
			<path class="st279" d="M163,99c0.4-0.3,0.9-0.3,1.3,0l0,0C163.9,99.2,163.4,99.1,163,99L163,99z"/>
			<path class="st280" d="M165.2,96c0-0.3,0.4-0.1,0.5-0.4c0.4,0.1,0,0.6,0.4,0.7c0.2,0.4-0.2,0.7-0.2,1.1
				C165.4,97.1,166.1,96.2,165.2,96z"/>
			<path class="st281" d="M164.8,97.2c-0.3-0.6-0.2-0.9,0.5-1C165.1,96.5,165.1,97,164.8,97.2z"/>
			<path class="st282" d="M162.5,96c-0.1,0.4,0.3,0.9-0.4,0.9C162.2,96.7,162.4,96.4,162.5,96z"/>
			<path class="st283" d="M130.8,79c-0.6,0-1.1,0-1.7,0C129.7,78.7,130.3,78.7,130.8,79z"/>
			<path class="st284" d="M140.3,106c1.1,0,2.2,0,3.2,0c0,0.1,0,0.1-0.1,0.2c-0.1,0-0.3,0-0.4,0c-0.7,0.1-1.4,0.1-2,0
				c-0.2,0-0.4,0-0.6-0.1C140.3,106.2,140.3,106.1,140.3,106z"/>
			<path class="st285" d="M141,106.3c0.7,0,1.4,0,2,0c-0.6,0.4-1.4,0.1-2,0.2C141,106.4,141,106.3,141,106.3z"/>
			<path class="st286" d="M151.1,114.9c0-0.4,0.1-0.8,0.1-1.1c0.1,0,0.1,0,0.2,0c0,0.4,0,0.9,0,1.3
				C151.3,115,151.2,114.9,151.1,114.9z"/>
			<path class="st287" d="M130.3,93.1c0,0.9,0,1.9,0,2.8c-0.1,0-0.1,0-0.2,0c0-0.9,0-1.8,0-2.7C130.2,93.1,130.2,93.1,130.3,93.1z"
				/>
			<path class="st288" d="M163,99c0.5,0,0.9,0,1.4,0C163.9,99.3,163.4,99.3,163,99z"/>
			<path class="st289" d="M145.9,113.7c0,0.4,0,0.8,0,1.2C145.7,114.5,145.7,114.1,145.9,113.7z"/>
			<path class="st290" d="M151.7,114.9c0-0.4,0-0.8,0-1.1C152,114.1,152,114.5,151.7,114.9z"/>
			<path class="st291" d="M146.4,113.5c0,0.5,0,0.9,0,1.4c-0.1,0-0.1,0-0.2,0C146.3,114.4,146,113.9,146.4,113.5z"/>
			<path class="st292" d="M165.5,94.9c-0.5,0.1-0.9,0.6-1.5,0.5c-0.4,0-0.8,0-1-0.5c-0.1-0.1-0.1-0.3-0.1-0.5
				c0.4-0.3,0.8-0.3,1.3-0.3c0.1,0,0.1,0,0.2,0c0.3,0.1,0.6,0.2,0.9,0.3C165.3,94.7,165.4,94.8,165.5,94.9z"/>
			<path class="st292" d="M163,94.5c0,0.2,0,0.3,0,0.5c-0.3-0.4-0.6,0-0.9,0c0-0.1,0-0.3,0-0.4c0.3-0.1,0.6-0.2,0.9-0.3
				c0,0,0.1,0.1,0.1,0.1C163.1,94.4,163.1,94.4,163,94.5z"/>
			<path class="st293" d="M164.3,94c0,0.1,0,0.1,0,0.2c0,0,0,0.1,0,0.1c-0.4,0.1-0.9,0.1-1.3,0c0,0,0-0.1,0-0.1c0-0.1,0-0.1,0-0.2
				C163.4,93.8,163.9,93.8,164.3,94z"/>
			<path class="st294" d="M164.3,94c-0.5,0-0.9,0-1.4,0c0-0.1,0-0.1,0-0.2c0.5,0,0.9,0,1.4,0C164.3,93.9,164.3,94,164.3,94z"/>
			<path class="st295" d="M128.3,83.1c0-0.1,0-0.2,0-0.2c0.3,0.1,0.2,0.3,0.2,0.5c-0.1,0-0.2,0-0.2,0l0,0
				C128.2,83.3,128.2,83.3,128.3,83.1C128.2,83.2,128.3,83.1,128.3,83.1z"/>
			<path class="st296" d="M128.3,83.1c0,0.1,0,0.1,0,0.2c-0.1,0-0.2,0-0.2,0c0-0.1,0-0.2,0-0.2C128.1,83.1,128.2,83.1,128.3,83.1z"
				/>
			<path class="st281" d="M163,94.3c0.4,0,0.9,0,1.3,0c-0.4,0.3-0.9,0.1-1.3,0.2C163,94.4,163,94.4,163,94.3z"/>
		</g>
	</g>
</g>
</svg>
